<?xml version="1.0" encoding="UTF-8" standalone="no"?>
<svg width="347px" height="180px" viewBox="0 0 347 180" version="1.1" xmlns="http://www.w3.org/2000/svg" xmlns:xlink="http://www.w3.org/1999/xlink">
    <!-- Generator: Sketch 47.1 (45422) - http://www.bohemiancoding.com/sketch -->
    <title>Animal-Services-White</title>
    <desc>Created with Sketch.</desc>
    <defs>
        <polygon id="path-1" points="206.411 82.94 0.842 82.94 0.842 0.283 206.411 0.283"></polygon>
        <polygon id="path-3" points="224.624 34.94 0.697 34.94 0.697 0.123 224.624 0.123"></polygon>
    </defs>
    <g id="Page-1" stroke="none" stroke-width="1" fill="none" fill-rule="evenodd">
        <g id="Animal-Services-White">
            <path d="M22.471,21.496 L16.546,7.863 L10.621,21.496 L22.471,21.496 Z M0.408,31.034 L12.933,3.093 C13.607,1.6 14.811,0.685 16.497,0.685 L16.787,0.685 C18.473,0.685 19.629,1.6 20.303,3.093 L32.828,31.034 C33.069,31.467 33.165,31.901 33.165,32.286 C33.165,33.876 31.961,35.129 30.371,35.129 C28.974,35.129 28.011,34.309 27.481,33.057 L24.735,26.747 L8.356,26.747 L5.514,33.25 C5.033,34.454 4.021,35.129 2.769,35.129 C1.227,35.129 0.023,33.923 0.023,32.382 C0.023,31.949 0.167,31.515 0.408,31.034 L0.408,31.034 Z" id="Fill-6" fill="#FFFFFF"></path>
            <path d="M38.613,3.961 C38.613,2.323 39.913,0.974 41.6,0.974 L42.226,0.974 C43.671,0.974 44.49,1.697 45.309,2.709 L62.169,24.53 L62.169,3.816 C62.169,2.227 63.47,0.926 65.059,0.926 C66.697,0.926 67.997,2.227 67.997,3.816 L67.997,32.141 C67.997,33.779 66.745,35.08 65.107,35.08 L64.867,35.08 C63.47,35.08 62.602,34.357 61.784,33.297 L44.441,10.849 L44.441,32.238 C44.441,33.828 43.141,35.129 41.551,35.129 C39.913,35.129 38.613,33.828 38.613,32.238 L38.613,3.961" id="Fill-7" fill="#FFFFFF"></path>
            <path d="M76.047,3.865 C76.047,2.227 77.347,0.926 79.033,0.926 C80.671,0.926 81.972,2.227 81.972,3.865 L81.972,32.19 C81.972,33.828 80.671,35.129 79.033,35.129 C77.347,35.129 76.047,33.828 76.047,32.19 L76.047,3.865" id="Fill-8" fill="#FFFFFF"></path>
            <path d="M90.018,3.961 C90.018,2.323 91.319,0.974 93.005,0.974 L93.631,0.974 C94.932,0.974 95.799,1.649 96.377,2.564 L106.589,18.557 L116.85,2.515 C117.476,1.504 118.343,0.974 119.547,0.974 L120.174,0.974 C121.86,0.974 123.161,2.323 123.161,3.961 L123.161,32.19 C123.161,33.828 121.86,35.129 120.174,35.129 C118.584,35.129 117.235,33.779 117.235,32.19 L117.235,11.958 L108.998,24.338 C108.372,25.301 107.601,25.88 106.493,25.88 C105.433,25.88 104.663,25.301 104.036,24.338 L95.847,12.053 L95.847,32.238 C95.847,33.876 94.546,35.129 92.908,35.129 C91.27,35.129 90.018,33.876 90.018,32.238 L90.018,3.961" id="Fill-9" fill="#FFFFFF"></path>
            <path d="M151.009,21.496 L145.084,7.863 L139.159,21.496 L151.009,21.496 Z M128.946,31.034 L141.471,3.093 C142.145,1.6 143.35,0.685 145.036,0.685 L145.325,0.685 C147.011,0.685 148.166,1.6 148.841,3.093 L161.366,31.034 C161.607,31.467 161.704,31.901 161.704,32.286 C161.704,33.876 160.499,35.129 158.909,35.129 C157.512,35.129 156.548,34.309 156.019,33.057 L153.273,26.747 L136.895,26.747 L134.052,33.25 C133.571,34.454 132.559,35.129 131.307,35.129 C129.765,35.129 128.561,33.923 128.561,32.382 C128.561,31.949 128.706,31.515 128.946,31.034 L128.946,31.034 Z" id="Fill-10" fill="#FFFFFF"></path>
            <path d="M167.152,3.865 C167.152,2.227 168.452,0.926 170.138,0.926 C171.776,0.926 173.077,2.227 173.077,3.865 L173.077,29.492 L188.347,29.492 C189.84,29.492 191.044,30.696 191.044,32.19 C191.044,33.683 189.84,34.887 188.347,34.887 L170.138,34.887 C168.452,34.887 167.152,33.587 167.152,31.901 L167.152,3.865" id="Fill-11" fill="#FFFFFF"></path>
            <path d="M1.468,79.307 C0.793,78.826 0.312,78.007 0.312,77.044 C0.312,75.502 1.564,74.297 3.106,74.297 C3.925,74.297 4.455,74.539 4.84,74.828 C7.634,77.044 10.621,78.297 14.282,78.297 C17.943,78.297 20.255,76.562 20.255,74.057 L20.255,73.961 C20.255,71.552 18.906,70.252 12.644,68.806 C5.466,67.072 1.42,64.953 1.42,58.738 L1.42,58.642 C1.42,52.861 6.237,48.863 12.933,48.863 C17.172,48.863 20.592,49.971 23.627,51.994 C24.301,52.38 24.928,53.199 24.928,54.354 C24.928,55.896 23.675,57.1 22.134,57.1 C21.556,57.1 21.074,56.956 20.592,56.667 C17.991,54.981 15.486,54.114 12.836,54.114 C9.368,54.114 7.345,55.896 7.345,58.112 L7.345,58.209 C7.345,60.809 8.886,61.965 15.39,63.507 C22.519,65.242 26.18,67.795 26.18,73.382 L26.18,73.479 C26.18,79.79 21.218,83.547 14.137,83.547 C9.561,83.547 5.225,82.101 1.468,79.307" id="Fill-12" fill="#FFFFFF"></path>
            <path d="M32.205,80.079 L32.205,52.332 C32.205,50.645 33.506,49.344 35.192,49.344 L54.798,49.344 C56.244,49.344 57.448,50.549 57.448,51.994 C57.448,53.488 56.244,54.643 54.798,54.643 L38.131,54.643 L38.131,63.411 L52.63,63.411 C54.076,63.411 55.28,64.615 55.28,66.109 C55.28,67.553 54.076,68.71 52.63,68.71 L38.131,68.71 L38.131,77.766 L55.039,77.766 C56.484,77.766 57.688,78.97 57.688,80.416 C57.688,81.909 56.484,83.065 55.039,83.065 L35.192,83.065 C33.506,83.065 32.205,81.764 32.205,80.079" id="Fill-13" fill="#FFFFFF"></path>
            <path d="M78.117,66.06 C82.356,66.06 85.054,63.844 85.054,60.424 L85.054,60.328 C85.054,56.715 82.453,54.74 78.069,54.74 L69.446,54.74 L69.446,66.06 L78.117,66.06 Z M63.521,52.332 C63.521,50.645 64.822,49.344 66.508,49.344 L78.551,49.344 C82.79,49.344 86.114,50.597 88.281,52.716 C90.064,54.547 91.075,57.052 91.075,59.991 L91.075,60.087 C91.075,65.482 87.944,68.758 83.416,70.155 L89.871,78.297 C90.449,79.018 90.834,79.645 90.834,80.56 C90.834,82.198 89.437,83.306 87.992,83.306 C86.643,83.306 85.776,82.679 85.102,81.764 L76.913,71.311 L69.446,71.311 L69.446,80.368 C69.446,82.005 68.145,83.306 66.508,83.306 C64.822,83.306 63.521,82.005 63.521,80.368 L63.521,52.332 L63.521,52.332 Z" id="Fill-14" fill="#FFFFFF"></path>
            <path d="M106.543,81.138 L94.742,53.391 C94.549,52.958 94.404,52.524 94.404,51.994 C94.404,50.405 95.705,49.104 97.391,49.104 C98.933,49.104 99.944,49.971 100.426,51.223 L110.157,75.55 L120.032,51.031 C120.417,50.019 121.477,49.104 122.874,49.104 C124.512,49.104 125.812,50.356 125.812,51.946 C125.812,52.38 125.668,52.861 125.523,53.199 L113.673,81.138 C113.047,82.631 111.939,83.547 110.253,83.547 L109.915,83.547 C108.278,83.547 107.17,82.631 106.543,81.138" id="Fill-15" fill="#FFFFFF"></path>
            <path d="M131.453,52.043 C131.453,50.405 132.753,49.104 134.439,49.104 C136.077,49.104 137.377,50.405 137.377,52.043 L137.377,80.368 C137.377,82.005 136.077,83.306 134.439,83.306 C132.753,83.306 131.453,82.005 131.453,80.368 L131.453,52.043" id="Fill-16" fill="#FFFFFF"></path>
            <path d="M143.93,66.301 L143.93,66.205 C143.93,56.619 151.108,48.766 161.32,48.766 C166.523,48.766 169.943,50.308 172.881,52.572 C173.507,53.054 174.038,53.873 174.038,54.932 C174.038,56.571 172.737,57.823 171.099,57.823 C170.28,57.823 169.702,57.534 169.317,57.245 C167.004,55.366 164.499,54.21 161.272,54.21 C154.865,54.21 150.144,59.509 150.144,66.109 L150.144,66.205 C150.144,72.804 154.817,78.152 161.272,78.152 C164.836,78.152 167.246,76.996 169.702,74.924 C170.135,74.539 170.762,74.25 171.485,74.25 C172.978,74.25 174.279,75.502 174.279,76.996 C174.279,77.911 173.845,78.633 173.315,79.115 C170.135,81.909 166.523,83.643 161.08,83.643 C151.252,83.643 143.93,75.984 143.93,66.301" id="Fill-17" fill="#FFFFFF"></path>
            <path d="M180.015,80.079 L180.015,52.332 C180.015,50.645 181.315,49.344 183.001,49.344 L202.607,49.344 C204.052,49.344 205.256,50.549 205.256,51.994 C205.256,53.488 204.052,54.643 202.607,54.643 L185.94,54.643 L185.94,63.411 L200.44,63.411 C201.885,63.411 203.089,64.615 203.089,66.109 C203.089,67.553 201.885,68.71 200.44,68.71 L185.94,68.71 L185.94,77.766 L202.848,77.766 C204.293,77.766 205.498,78.97 205.498,80.416 C205.498,81.909 204.293,83.065 202.848,83.065 L183.001,83.065 C181.315,83.065 180.015,81.764 180.015,80.079" id="Fill-18" fill="#FFFFFF"></path>
            <path d="M210.463,79.307 C209.789,78.826 209.307,78.007 209.307,77.044 C209.307,75.502 210.559,74.297 212.101,74.297 C212.919,74.297 213.45,74.539 213.835,74.828 C216.629,77.044 219.616,78.297 223.277,78.297 C226.938,78.297 229.25,76.562 229.25,74.057 L229.25,73.961 C229.25,71.552 227.901,70.252 221.639,68.806 C214.461,67.072 210.415,64.953 210.415,58.738 L210.415,58.642 C210.415,52.861 215.232,48.863 221.928,48.863 C226.167,48.863 229.587,49.971 232.623,51.994 C233.296,52.38 233.922,53.199 233.922,54.354 C233.922,55.896 232.67,57.1 231.128,57.1 C230.55,57.1 230.069,56.956 229.587,56.667 C226.986,54.981 224.481,54.114 221.832,54.114 C218.363,54.114 216.34,55.896 216.34,58.112 L216.34,58.209 C216.34,60.809 217.881,61.965 224.384,63.507 C231.514,65.242 235.175,67.795 235.175,73.382 L235.175,73.479 C235.175,79.79 230.213,83.547 223.132,83.547 C218.556,83.547 214.22,82.101 210.463,79.307" id="Fill-19" fill="#FFFFFF"></path>
            <path d="M13.221,115.058 C17.701,115.058 20.495,112.553 20.495,109.037 L20.495,108.94 C20.495,104.99 17.653,102.919 13.221,102.919 L6.332,102.919 L6.332,115.058 L13.221,115.058 Z M0.407,100.51 C0.407,98.824 1.708,97.523 3.394,97.523 L13.703,97.523 C21.603,97.523 26.517,102.004 26.517,108.796 L26.517,108.892 C26.517,116.455 20.447,120.405 13.028,120.405 L6.332,120.405 L6.332,128.547 C6.332,130.184 5.032,131.485 3.394,131.485 C1.708,131.485 0.407,130.184 0.407,128.547 L0.407,100.51 L0.407,100.51 Z" id="Fill-20" fill="#FFFFFF"></path>
            <path d="M31.626,128.257 L31.626,100.51 C31.626,98.824 32.927,97.523 34.613,97.523 L54.219,97.523 C55.664,97.523 56.869,98.728 56.869,100.172 C56.869,101.667 55.664,102.822 54.219,102.822 L37.552,102.822 L37.552,111.589 L52.051,111.589 C53.496,111.589 54.701,112.794 54.701,114.287 C54.701,115.732 53.496,116.888 52.051,116.888 L37.552,116.888 L37.552,125.945 L54.46,125.945 C55.905,125.945 57.109,127.149 57.109,128.594 C57.109,130.088 55.905,131.244 54.46,131.244 L34.613,131.244 C32.927,131.244 31.626,129.943 31.626,128.257" id="Fill-21" fill="#FFFFFF"></path>
            <path d="M62.942,100.317 C62.942,98.679 64.243,97.331 65.929,97.331 L66.555,97.331 C68,97.331 68.819,98.053 69.638,99.065 L86.498,120.886 L86.498,100.172 C86.498,98.584 87.799,97.283 89.389,97.283 C91.027,97.283 92.327,98.584 92.327,100.172 L92.327,128.498 C92.327,130.135 91.075,131.436 89.437,131.436 L89.196,131.436 C87.799,131.436 86.932,130.713 86.113,129.654 L68.771,107.206 L68.771,128.594 C68.771,130.184 67.471,131.485 65.881,131.485 C64.243,131.485 62.942,130.184 62.942,128.594 L62.942,100.317" id="Fill-22" fill="#FFFFFF"></path>
            <path d="M114.636,114.239 C118.875,114.239 121.572,112.023 121.572,108.603 L121.572,108.506 C121.572,104.894 118.971,102.919 114.587,102.919 L105.965,102.919 L105.965,114.239 L114.636,114.239 Z M100.04,100.51 C100.04,98.824 101.34,97.523 103.026,97.523 L115.069,97.523 C119.309,97.523 122.632,98.776 124.8,100.895 C126.582,102.726 127.594,105.231 127.594,108.17 L127.594,108.265 C127.594,113.661 124.463,116.937 119.935,118.334 L126.39,126.475 C126.968,127.197 127.353,127.824 127.353,128.739 C127.353,130.377 125.956,131.485 124.511,131.485 C123.162,131.485 122.295,130.858 121.621,129.943 L113.431,119.49 L105.965,119.49 L105.965,128.547 C105.965,130.184 104.664,131.485 103.026,131.485 C101.34,131.485 100.04,130.184 100.04,128.547 L100.04,100.51 L100.04,100.51 Z" id="Fill-23" fill="#FFFFFF"></path>
            <path d="M134.245,100.221 C134.245,98.584 135.545,97.283 137.231,97.283 C138.87,97.283 140.17,98.584 140.17,100.221 L140.17,128.547 C140.17,130.184 138.87,131.485 137.231,131.485 C135.545,131.485 134.245,130.184 134.245,128.547 L134.245,100.221" id="Fill-24" fill="#FFFFFF"></path>
            <path d="M156.501,103.015 L148.312,103.015 C146.77,103.015 145.566,101.762 145.566,100.269 C145.566,98.776 146.77,97.523 148.312,97.523 L170.712,97.523 C172.206,97.523 173.41,98.776 173.41,100.269 C173.41,101.762 172.206,103.015 170.712,103.015 L162.475,103.015 L162.475,128.547 C162.475,130.184 161.125,131.485 159.488,131.485 C157.85,131.485 156.501,130.184 156.501,128.547 L156.501,103.015" id="Fill-25" fill="#FFFFFF"></path>
            <g id="Group-29" transform="translate(0.000000, 97.000000)">
                <mask id="mask-2" fill="white">
                    <use xlink:href="#path-1"></use>
                </mask>
                <g id="Clip-27"></g>
                <path d="M178.471,3.221 C178.471,1.584 179.771,0.283 181.457,0.283 C183.095,0.283 184.396,1.584 184.396,3.221 L184.396,14.542 L200.485,14.542 L200.485,3.221 C200.485,1.584 201.786,0.283 203.424,0.283 C205.11,0.283 206.411,1.584 206.411,3.221 L206.411,31.547 C206.411,33.184 205.11,34.485 203.424,34.485 C201.786,34.485 200.485,33.184 200.485,31.547 L200.485,20.033 L184.396,20.033 L184.396,31.547 C184.396,33.184 183.095,34.485 181.457,34.485 C179.771,34.485 178.471,33.184 178.471,31.547 L178.471,3.221" id="Fill-26" fill="#FFFFFF" mask="url(#mask-2)"></path>
                <path d="M0.842,65.658 L0.842,65.561 C0.842,55.975 8.019,48.123 18.232,48.123 C23.434,48.123 26.854,49.665 29.793,51.928 C30.419,52.411 30.949,53.229 30.949,54.289 C30.949,55.927 29.648,57.179 28.011,57.179 C27.192,57.179 26.614,56.89 26.229,56.601 C23.916,54.722 21.411,53.566 18.184,53.566 C11.777,53.566 7.056,58.866 7.056,65.464 L7.056,65.561 C7.056,72.161 11.728,77.508 18.184,77.508 C21.748,77.508 24.157,76.352 26.614,74.281 C27.047,73.895 27.673,73.606 28.396,73.606 C29.889,73.606 31.19,74.858 31.19,76.352 C31.19,77.267 30.756,77.99 30.226,78.471 C27.047,81.265 23.434,83 17.991,83 C8.164,83 0.842,75.34 0.842,65.658" id="Fill-28" fill="#FFFFFF" mask="url(#mask-2)"></path>
            </g>
            <path d="M37.264,148.399 C37.264,146.761 38.564,145.461 40.25,145.461 C41.889,145.461 43.189,146.761 43.189,148.399 L43.189,176.724 C43.189,178.362 41.889,179.663 40.25,179.663 C38.564,179.663 37.264,178.362 37.264,176.724 L37.264,148.399" id="Fill-30" fill="#FFFFFF"></path>
            <path d="M59.521,151.193 L51.331,151.193 C49.789,151.193 48.585,149.94 48.585,148.447 C48.585,146.954 49.789,145.701 51.331,145.701 L73.731,145.701 C75.225,145.701 76.429,146.954 76.429,148.447 C76.429,149.94 75.225,151.193 73.731,151.193 L65.494,151.193 L65.494,176.724 C65.494,178.362 64.145,179.663 62.507,179.663 C60.869,179.663 59.521,178.362 59.521,176.724 L59.521,151.193" id="Fill-31" fill="#FFFFFF"></path>
            <g id="Group-39" transform="translate(78.000000, 145.000000)">
                <mask id="mask-4" fill="white">
                    <use xlink:href="#path-3"></use>
                </mask>
                <g id="Clip-33"></g>
                <path d="M12.98,21.319 L1.371,5.374 C0.986,4.796 0.697,4.122 0.697,3.302 C0.697,1.713 1.997,0.461 3.684,0.461 C4.984,0.461 5.851,1.183 6.574,2.243 L15.967,15.779 L25.505,2.194 C26.228,1.134 27.095,0.412 28.348,0.412 C30.082,0.412 31.238,1.713 31.238,3.302 C31.238,4.122 30.853,4.844 30.419,5.422 L18.906,21.174 L18.906,31.724 C18.906,33.362 17.605,34.663 15.919,34.663 C14.281,34.663 12.98,33.362 12.98,31.724 L12.98,21.319" id="Fill-32" fill="#FFFFFF" mask="url(#mask-4)"></path>
                <path d="M48.055,17.658 L48.055,17.561 C48.055,7.975 55.232,0.123 65.445,0.123 C70.647,0.123 74.068,1.665 77.006,3.928 C77.632,4.411 78.162,5.229 78.162,6.289 C78.162,7.927 76.862,9.179 75.223,9.179 C74.405,9.179 73.827,8.89 73.441,8.601 C71.129,6.722 68.624,5.566 65.396,5.566 C58.99,5.566 54.269,10.866 54.269,17.464 L54.269,17.561 C54.269,24.161 58.941,29.508 65.396,29.508 C68.961,29.508 71.37,28.352 73.827,26.281 C74.26,25.895 74.886,25.606 75.609,25.606 C77.102,25.606 78.403,26.858 78.403,28.352 C78.403,29.267 77.969,29.99 77.44,30.471 C74.26,33.265 70.647,35 65.204,35 C55.376,35 48.055,27.34 48.055,17.658" id="Fill-34" fill="#FFFFFF" mask="url(#mask-4)"></path>
                <path d="M110.731,17.658 L110.731,17.561 C110.731,11.01 105.962,5.566 99.266,5.566 C92.571,5.566 87.898,10.914 87.898,17.464 L87.898,17.561 C87.898,24.113 92.666,29.508 99.363,29.508 C106.058,29.508 110.731,24.209 110.731,17.658 Z M81.683,17.658 L81.683,17.561 C81.683,8.072 89.005,0.123 99.363,0.123 C109.719,0.123 116.946,7.975 116.946,17.464 L116.946,17.561 C116.946,27.051 109.624,35 99.266,35 C88.91,35 81.683,27.147 81.683,17.658 L81.683,17.658 Z" id="Fill-35" fill="#FFFFFF" mask="url(#mask-4)"></path>
                <path d="M122.634,20.115 L122.634,3.399 C122.634,1.761 123.935,0.461 125.621,0.461 C127.258,0.461 128.559,1.761 128.559,3.399 L128.559,19.874 C128.559,26.136 131.787,29.46 137.085,29.46 C142.336,29.46 145.564,26.329 145.564,20.115 L145.564,3.399 C145.564,1.761 146.865,0.461 148.55,0.461 C150.189,0.461 151.489,1.761 151.489,3.399 L151.489,19.826 C151.489,29.893 145.805,34.952 136.99,34.952 C128.222,34.952 122.634,29.893 122.634,20.115" id="Fill-36" fill="#FFFFFF" mask="url(#mask-4)"></path>
                <path d="M158.672,3.495 C158.672,1.857 159.972,0.508 161.659,0.508 L162.285,0.508 C163.73,0.508 164.549,1.231 165.368,2.243 L182.228,24.064 L182.228,3.35 C182.228,1.761 183.529,0.461 185.119,0.461 C186.756,0.461 188.057,1.761 188.057,3.35 L188.057,31.675 C188.057,33.313 186.804,34.614 185.166,34.614 L184.925,34.614 C183.529,34.614 182.662,33.891 181.842,32.832 L164.5,10.383 L164.5,31.772 C164.5,33.362 163.2,34.663 161.611,34.663 C159.972,34.663 158.672,33.362 158.672,31.772 L158.672,3.495" id="Fill-37" fill="#FFFFFF" mask="url(#mask-4)"></path>
                <path d="M194.275,17.658 L194.275,17.561 C194.275,7.975 201.453,0.123 211.665,0.123 C216.868,0.123 220.289,1.665 223.227,3.928 C223.853,4.411 224.382,5.229 224.382,6.289 C224.382,7.927 223.082,9.179 221.444,9.179 C220.625,9.179 220.047,8.89 219.662,8.601 C217.35,6.722 214.844,5.566 211.617,5.566 C205.21,5.566 200.49,10.866 200.49,17.464 L200.49,17.561 C200.49,24.161 205.163,29.508 211.617,29.508 C215.182,29.508 217.59,28.352 220.047,26.281 C220.481,25.895 221.107,25.606 221.83,25.606 C223.323,25.606 224.624,26.858 224.624,28.352 C224.624,29.267 224.19,29.99 223.661,30.471 C220.481,33.265 216.868,35 211.424,35 C201.597,35 194.275,27.34 194.275,17.658" id="Fill-38" fill="#FFFFFF" mask="url(#mask-4)"></path>
            </g>
            <path d="M308.697,148.399 C308.697,146.761 309.998,145.461 311.683,145.461 C313.321,145.461 314.622,146.761 314.622,148.399 L314.622,176.724 C314.622,178.362 313.321,179.663 311.683,179.663 C309.998,179.663 308.697,178.362 308.697,176.724 L308.697,148.399" id="Fill-40" fill="#FFFFFF"></path>
            <path d="M322.667,148.399 C322.667,146.761 323.967,145.461 325.654,145.461 C327.291,145.461 328.592,146.761 328.592,148.399 L328.592,174.026 L343.863,174.026 C345.356,174.026 346.56,175.23 346.56,176.724 C346.56,178.217 345.356,179.422 343.863,179.422 L325.654,179.422 C323.967,179.422 322.667,178.121 322.667,176.435 L322.667,148.399" id="Fill-41" fill="#FFFFFF"></path>
        </g>
    </g>
</svg>