<?xml version="1.0" encoding="UTF-8" standalone="no"?>
<svg width="347px" height="180px" viewBox="0 0 347 180" version="1.1" xmlns="http://www.w3.org/2000/svg" xmlns:xlink="http://www.w3.org/1999/xlink">
    <!-- Generator: Sketch 47.1 (45422) - http://www.bohemiancoding.com/sketch -->
    <title>PCC_Animal Services Logo_reversed</title>
    <desc>Created with Sketch.</desc>
    <defs>
        <polygon id="path-1" points="206.389 82.94 0.819 82.94 0.819 0.284 206.389 0.284"></polygon>
        <polygon id="path-3" points="224.6 34.94 0.673 34.94 0.673 0.124 224.6 0.124"></polygon>
    </defs>
    <g id="Page-1" stroke="none" stroke-width="1" fill="none" fill-rule="evenodd">
        <g id="PCC_Animal-Services-Logo_reversed">
            <path d="M22.448,21.497 L16.523,7.864 L10.598,21.497 L22.448,21.497 Z M0.385,31.035 L12.91,3.094 C13.584,1.601 14.789,0.686 16.475,0.686 L16.764,0.686 C18.45,0.686 19.606,1.601 20.28,3.094 L32.805,31.035 C33.046,31.468 33.142,31.902 33.142,32.287 C33.142,33.876 31.938,35.129 30.348,35.129 C28.951,35.129 27.988,34.31 27.458,33.058 L24.712,26.748 L8.334,26.748 L5.491,33.251 C5.01,34.455 3.998,35.129 2.746,35.129 C1.204,35.129 0,33.924 0,32.383 C0,31.95 0.145,31.516 0.385,31.035 L0.385,31.035 Z" id="Fill-1" fill="#FFFFFE"></path>
            <path d="M38.59,3.961 C38.59,2.324 39.891,0.975 41.577,0.975 L42.203,0.975 C43.648,0.975 44.467,1.698 45.286,2.709 L62.146,24.531 L62.146,3.817 C62.146,2.228 63.447,0.927 65.036,0.927 C66.674,0.927 67.975,2.228 67.975,3.817 L67.975,32.142 C67.975,33.78 66.722,35.081 65.085,35.081 L64.844,35.081 C63.447,35.081 62.58,34.358 61.761,33.298 L44.419,10.85 L44.419,32.239 C44.419,33.829 43.118,35.129 41.528,35.129 C39.891,35.129 38.59,33.829 38.59,32.239 L38.59,3.961" id="Fill-2" fill="#FFFFFE"></path>
            <path d="M76.024,3.866 C76.024,2.228 77.324,0.927 79.01,0.927 C80.648,0.927 81.949,2.228 81.949,3.866 L81.949,32.191 C81.949,33.829 80.648,35.129 79.01,35.129 C77.324,35.129 76.024,33.829 76.024,32.191 L76.024,3.866" id="Fill-3" fill="#FFFFFE"></path>
            <path d="M89.995,3.961 C89.995,2.324 91.295,0.975 92.981,0.975 L93.607,0.975 C94.908,0.975 95.775,1.65 96.354,2.565 L106.566,18.558 L116.827,2.516 C117.453,1.505 118.32,0.975 119.524,0.975 L120.15,0.975 C121.836,0.975 123.137,2.324 123.137,3.961 L123.137,32.191 C123.137,33.829 121.836,35.129 120.15,35.129 C118.561,35.129 117.212,33.78 117.212,32.191 L117.212,11.958 L108.975,24.338 C108.348,25.302 107.578,25.88 106.47,25.88 C105.41,25.88 104.639,25.302 104.013,24.338 L95.823,12.054 L95.823,32.239 C95.823,33.876 94.523,35.129 92.885,35.129 C91.247,35.129 89.995,33.876 89.995,32.239 L89.995,3.961" id="Fill-4" fill="#FFFFFE"></path>
            <path d="M150.985,21.497 L145.061,7.864 L139.135,21.497 L150.985,21.497 Z M128.923,31.035 L141.447,3.094 C142.122,1.601 143.326,0.686 145.012,0.686 L145.301,0.686 C146.987,0.686 148.144,1.601 148.817,3.094 L161.343,31.035 C161.583,31.468 161.68,31.902 161.68,32.287 C161.68,33.876 160.476,35.129 158.886,35.129 C157.488,35.129 156.525,34.31 155.995,33.058 L153.25,26.748 L136.871,26.748 L134.029,33.251 C133.547,34.455 132.536,35.129 131.283,35.129 C129.742,35.129 128.538,33.924 128.538,32.383 C128.538,31.95 128.682,31.516 128.923,31.035 L128.923,31.035 Z" id="Fill-5" fill="#FFFFFE"></path>
            <path d="M167.128,3.866 C167.128,2.228 168.428,0.927 170.114,0.927 C171.752,0.927 173.053,2.228 173.053,3.866 L173.053,29.493 L188.323,29.493 C189.816,29.493 191.021,30.697 191.021,32.191 C191.021,33.684 189.816,34.888 188.323,34.888 L170.114,34.888 C168.428,34.888 167.128,33.587 167.128,31.902 L167.128,3.866" id="Fill-6" fill="#FFFFFE"></path>
            <path d="M1.445,79.308 C0.771,78.827 0.289,78.008 0.289,77.044 C0.289,75.503 1.542,74.298 3.083,74.298 C3.902,74.298 4.432,74.54 4.817,74.829 C7.611,77.044 10.598,78.297 14.259,78.297 C17.92,78.297 20.232,76.563 20.232,74.058 L20.232,73.961 C20.232,71.553 18.883,70.253 12.621,68.807 C5.443,67.073 1.397,64.954 1.397,58.739 L1.397,58.643 C1.397,52.862 6.214,48.864 12.91,48.864 C17.149,48.864 20.569,49.972 23.604,51.995 C24.278,52.38 24.905,53.2 24.905,54.355 C24.905,55.897 23.652,57.101 22.111,57.101 C21.533,57.101 21.051,56.957 20.569,56.668 C17.968,54.982 15.463,54.115 12.813,54.115 C9.345,54.115 7.322,55.897 7.322,58.113 L7.322,58.21 C7.322,60.81 8.863,61.966 15.367,63.508 C22.496,65.243 26.157,67.795 26.157,73.383 L26.157,73.48 C26.157,79.791 21.195,83.547 14.114,83.547 C9.538,83.547 5.202,82.102 1.445,79.308" id="Fill-7" fill="#FFFFFE"></path>
            <path d="M32.183,80.08 L32.183,52.333 C32.183,50.646 33.483,49.345 35.169,49.345 L54.775,49.345 C56.221,49.345 57.425,50.55 57.425,51.995 C57.425,53.489 56.221,54.644 54.775,54.644 L38.108,54.644 L38.108,63.412 L52.607,63.412 C54.053,63.412 55.257,64.616 55.257,66.11 C55.257,67.554 54.053,68.711 52.607,68.711 L38.108,68.711 L38.108,77.767 L55.016,77.767 C56.461,77.767 57.665,78.971 57.665,80.417 C57.665,81.91 56.461,83.066 55.016,83.066 L35.169,83.066 C33.483,83.066 32.183,81.765 32.183,80.08" id="Fill-8" fill="#FFFFFE"></path>
            <path d="M78.094,66.061 C82.333,66.061 85.031,63.845 85.031,60.425 L85.031,60.329 C85.031,56.716 82.43,54.741 78.046,54.741 L69.423,54.741 L69.423,66.061 L78.094,66.061 Z M63.498,52.333 C63.498,50.646 64.799,49.345 66.485,49.345 L78.528,49.345 C82.767,49.345 86.091,50.598 88.258,52.717 C90.041,54.548 91.052,57.053 91.052,59.992 L91.052,60.087 C91.052,65.483 87.921,68.759 83.393,70.156 L89.848,78.297 C90.426,79.019 90.811,79.646 90.811,80.561 C90.811,82.199 89.415,83.307 87.969,83.307 C86.621,83.307 85.753,82.68 85.079,81.765 L76.89,71.312 L69.423,71.312 L69.423,80.369 C69.423,82.006 68.123,83.307 66.485,83.307 C64.799,83.307 63.498,82.006 63.498,80.369 L63.498,52.333 L63.498,52.333 Z" id="Fill-9" fill="#FFFFFE"></path>
            <path d="M106.52,81.139 L94.718,53.392 C94.525,52.959 94.381,52.525 94.381,51.995 C94.381,50.406 95.682,49.105 97.368,49.105 C98.909,49.105 99.92,49.972 100.402,51.224 L110.133,75.551 L120.008,51.032 C120.394,50.02 121.454,49.105 122.851,49.105 C124.488,49.105 125.789,50.357 125.789,51.947 C125.789,52.38 125.645,52.862 125.5,53.2 L113.649,81.139 C113.023,82.632 111.916,83.547 110.23,83.547 L109.892,83.547 C108.254,83.547 107.146,82.632 106.52,81.139" id="Fill-10" fill="#FFFFFE"></path>
            <path d="M131.429,52.044 C131.429,50.406 132.73,49.105 134.416,49.105 C136.054,49.105 137.354,50.406 137.354,52.044 L137.354,80.369 C137.354,82.006 136.054,83.307 134.416,83.307 C132.73,83.307 131.429,82.006 131.429,80.369 L131.429,52.044" id="Fill-11" fill="#FFFFFE"></path>
            <path d="M143.907,66.302 L143.907,66.206 C143.907,56.62 151.084,48.767 161.297,48.767 C166.499,48.767 169.92,50.309 172.858,52.573 C173.484,53.055 174.014,53.874 174.014,54.933 C174.014,56.572 172.714,57.824 171.075,57.824 C170.257,57.824 169.679,57.535 169.293,57.246 C166.981,55.367 164.476,54.211 161.248,54.211 C154.842,54.211 150.121,59.51 150.121,66.11 L150.121,66.206 C150.121,72.805 154.794,78.153 161.248,78.153 C164.813,78.153 167.222,76.997 169.679,74.925 C170.112,74.54 170.738,74.251 171.461,74.251 C172.954,74.251 174.255,75.503 174.255,76.997 C174.255,77.912 173.821,78.634 173.292,79.116 C170.112,81.91 166.499,83.644 161.056,83.644 C151.229,83.644 143.907,75.985 143.907,66.302" id="Fill-12" fill="#FFFFFE"></path>
            <path d="M179.992,80.08 L179.992,52.333 C179.992,50.646 181.292,49.345 182.979,49.345 L202.584,49.345 C204.029,49.345 205.233,50.55 205.233,51.995 C205.233,53.489 204.029,54.644 202.584,54.644 L185.917,54.644 L185.917,63.412 L200.417,63.412 C201.862,63.412 203.066,64.616 203.066,66.11 C203.066,67.554 201.862,68.711 200.417,68.711 L185.917,68.711 L185.917,77.767 L202.825,77.767 C204.271,77.767 205.475,78.971 205.475,80.417 C205.475,81.91 204.271,83.066 202.825,83.066 L182.979,83.066 C181.292,83.066 179.992,81.765 179.992,80.08" id="Fill-13" fill="#FFFFFE"></path>
            <path d="M210.44,79.308 C209.766,78.827 209.284,78.008 209.284,77.044 C209.284,75.503 210.536,74.298 212.078,74.298 C212.896,74.298 213.427,74.54 213.813,74.829 C216.606,77.044 219.593,78.297 223.254,78.297 C226.915,78.297 229.228,76.563 229.228,74.058 L229.228,73.961 C229.228,71.553 227.878,70.253 221.616,68.807 C214.438,67.073 210.392,64.954 210.392,58.739 L210.392,58.643 C210.392,52.862 215.209,48.864 221.905,48.864 C226.145,48.864 229.564,49.972 232.6,51.995 C233.273,52.38 233.899,53.2 233.899,54.355 C233.899,55.897 232.647,57.101 231.105,57.101 C230.527,57.101 230.046,56.957 229.564,56.668 C226.963,54.982 224.458,54.115 221.809,54.115 C218.34,54.115 216.317,55.897 216.317,58.113 L216.317,58.21 C216.317,60.81 217.858,61.966 224.361,63.508 C231.491,65.243 235.152,67.795 235.152,73.383 L235.152,73.48 C235.152,79.791 230.19,83.547 223.109,83.547 C218.533,83.547 214.197,82.102 210.44,79.308" id="Fill-14" fill="#FFFFFE"></path>
            <path d="M13.198,115.059 C17.678,115.059 20.472,112.554 20.472,109.038 L20.472,108.941 C20.472,104.991 17.63,102.919 13.198,102.919 L6.31,102.919 L6.31,115.059 L13.198,115.059 Z M0.384,100.511 C0.384,98.825 1.685,97.524 3.371,97.524 L13.68,97.524 C21.58,97.524 26.494,102.004 26.494,108.796 L26.494,108.893 C26.494,116.456 20.424,120.406 13.005,120.406 L6.31,120.406 L6.31,128.547 C6.31,130.185 5.009,131.486 3.371,131.486 C1.685,131.486 0.384,130.185 0.384,128.547 L0.384,100.511 L0.384,100.511 Z" id="Fill-15" fill="#B4B5B4"></path>
            <path d="M31.604,128.258 L31.604,100.511 C31.604,98.825 32.904,97.524 34.59,97.524 L54.196,97.524 C55.642,97.524 56.846,98.729 56.846,100.173 C56.846,101.667 55.642,102.823 54.196,102.823 L37.529,102.823 L37.529,111.59 L52.028,111.59 C53.474,111.59 54.678,112.794 54.678,114.288 C54.678,115.733 53.474,116.889 52.028,116.889 L37.529,116.889 L37.529,125.946 L54.437,125.946 C55.882,125.946 57.086,127.15 57.086,128.595 C57.086,130.088 55.882,131.245 54.437,131.245 L34.59,131.245 C32.904,131.245 31.604,129.944 31.604,128.258" id="Fill-16" fill="#B4B5B4"></path>
            <path d="M62.919,100.318 C62.919,98.68 64.22,97.332 65.906,97.332 L66.532,97.332 C67.978,97.332 68.796,98.054 69.615,99.066 L86.476,120.887 L86.476,100.173 C86.476,98.585 87.776,97.284 89.366,97.284 C91.004,97.284 92.304,98.585 92.304,100.173 L92.304,128.499 C92.304,130.136 91.052,131.437 89.414,131.437 L89.173,131.437 C87.776,131.437 86.909,130.714 86.09,129.655 L68.748,107.207 L68.748,128.595 C68.748,130.185 67.448,131.486 65.858,131.486 C64.22,131.486 62.919,130.185 62.919,128.595 L62.919,100.318" id="Fill-17" fill="#B4B5B4"></path>
            <path d="M114.612,114.24 C118.852,114.24 121.549,112.024 121.549,108.604 L121.549,108.507 C121.549,104.895 118.948,102.919 114.564,102.919 L105.941,102.919 L105.941,114.24 L114.612,114.24 Z M100.016,100.511 C100.016,98.825 101.317,97.524 103.003,97.524 L115.046,97.524 C119.285,97.524 122.609,98.777 124.776,100.896 C126.559,102.727 127.57,105.232 127.57,108.17 L127.57,108.266 C127.57,113.662 124.439,116.938 119.911,118.334 L126.366,126.476 C126.944,127.198 127.33,127.825 127.33,128.74 C127.33,130.377 125.933,131.486 124.487,131.486 C123.139,131.486 122.271,130.859 121.597,129.944 L113.408,119.491 L105.941,119.491 L105.941,128.547 C105.941,130.185 104.641,131.486 103.003,131.486 C101.317,131.486 100.016,130.185 100.016,128.547 L100.016,100.511 L100.016,100.511 Z" id="Fill-18" fill="#B4B5B4"></path>
            <path d="M134.222,100.222 C134.222,98.585 135.522,97.284 137.209,97.284 C138.847,97.284 140.147,98.585 140.147,100.222 L140.147,128.547 C140.147,130.185 138.847,131.486 137.209,131.486 C135.522,131.486 134.222,130.185 134.222,128.547 L134.222,100.222" id="Fill-19" fill="#B4B5B4"></path>
            <path d="M156.479,103.016 L148.29,103.016 C146.748,103.016 145.544,101.763 145.544,100.27 C145.544,98.777 146.748,97.524 148.29,97.524 L170.689,97.524 C172.183,97.524 173.388,98.777 173.388,100.27 C173.388,101.763 172.183,103.016 170.689,103.016 L162.452,103.016 L162.452,128.547 C162.452,130.185 161.104,131.486 159.466,131.486 C157.828,131.486 156.479,130.185 156.479,128.547 L156.479,103.016" id="Fill-20" fill="#B4B5B4"></path>
            <g id="Group-24" transform="translate(0.000000, 97.000000)">
                <mask id="mask-2" fill="white">
                    <use xlink:href="#path-1"></use>
                </mask>
                <g id="Clip-22"></g>
                <path d="M178.449,3.222 C178.449,1.585 179.749,0.284 181.436,0.284 C183.073,0.284 184.374,1.585 184.374,3.222 L184.374,14.542 L200.463,14.542 L200.463,3.222 C200.463,1.585 201.764,0.284 203.401,0.284 C205.088,0.284 206.389,1.585 206.389,3.222 L206.389,31.547 C206.389,33.185 205.088,34.486 203.401,34.486 C201.764,34.486 200.463,33.185 200.463,31.547 L200.463,20.034 L184.374,20.034 L184.374,31.547 C184.374,33.185 183.073,34.486 181.436,34.486 C179.749,34.486 178.449,33.185 178.449,31.547 L178.449,3.222" id="Fill-21" fill="#B4B5B4" mask="url(#mask-2)"></path>
                <path d="M0.819,65.659 L0.819,65.562 C0.819,55.976 7.996,48.124 18.209,48.124 C23.411,48.124 26.832,49.666 29.77,51.929 C30.396,52.412 30.926,53.23 30.926,54.29 C30.926,55.928 29.626,57.18 27.988,57.18 C27.169,57.18 26.591,56.891 26.206,56.602 C23.893,54.723 21.388,53.567 18.161,53.567 C11.754,53.567 7.033,58.867 7.033,65.465 L7.033,65.562 C7.033,72.162 11.706,77.509 18.161,77.509 C21.726,77.509 24.134,76.353 26.591,74.282 C27.024,73.896 27.65,73.607 28.373,73.607 C29.866,73.607 31.167,74.859 31.167,76.353 C31.167,77.268 30.733,77.991 30.204,78.472 C27.024,81.266 23.411,83 17.968,83 C8.141,83 0.819,75.341 0.819,65.659" id="Fill-23" fill="#B4B5B4" mask="url(#mask-2)"></path>
            </g>
            <path d="M37.241,148.4 C37.241,146.762 38.541,145.461 40.227,145.461 C41.865,145.461 43.165,146.762 43.165,148.4 L43.165,176.725 C43.165,178.363 41.865,179.664 40.227,179.664 C38.541,179.664 37.241,178.363 37.241,176.725 L37.241,148.4" id="Fill-25" fill="#B4B5B4"></path>
            <path d="M59.497,151.194 L51.308,151.194 C49.766,151.194 48.562,149.941 48.562,148.448 C48.562,146.955 49.766,145.702 51.308,145.702 L73.708,145.702 C75.201,145.702 76.405,146.955 76.405,148.448 C76.405,149.941 75.201,151.194 73.708,151.194 L65.47,151.194 L65.47,176.725 C65.47,178.363 64.122,179.664 62.484,179.664 C60.846,179.664 59.497,178.363 59.497,176.725 L59.497,151.194" id="Fill-26" fill="#B4B5B4"></path>
            <g id="Group-34" transform="translate(78.000000, 145.000000)">
                <mask id="mask-4" fill="white">
                    <use xlink:href="#path-3"></use>
                </mask>
                <g id="Clip-28"></g>
                <path d="M12.957,21.32 L1.348,5.375 C0.962,4.796 0.673,4.123 0.673,3.303 C0.673,1.713 1.974,0.461 3.66,0.461 C4.961,0.461 5.828,1.184 6.55,2.244 L15.944,15.78 L25.482,2.195 C26.205,1.135 27.072,0.413 28.324,0.413 C30.058,0.413 31.214,1.713 31.214,3.303 C31.214,4.123 30.829,4.845 30.396,5.422 L18.882,21.175 L18.882,31.725 C18.882,33.363 17.582,34.664 15.896,34.664 C14.258,34.664 12.957,33.363 12.957,31.725 L12.957,21.32" id="Fill-27" fill="#B4B5B4" mask="url(#mask-4)"></path>
                <path d="M48.032,17.659 L48.032,17.562 C48.032,7.976 55.209,0.124 65.422,0.124 C70.624,0.124 74.045,1.666 76.983,3.929 C77.609,4.412 78.139,5.23 78.139,6.29 C78.139,7.928 76.839,9.18 75.2,9.18 C74.382,9.18 73.804,8.891 73.418,8.602 C71.106,6.723 68.601,5.567 65.374,5.567 C58.967,5.567 54.246,10.867 54.246,17.465 L54.246,17.562 C54.246,24.162 58.918,29.509 65.374,29.509 C68.938,29.509 71.347,28.353 73.804,26.282 C74.237,25.896 74.863,25.607 75.586,25.607 C77.079,25.607 78.38,26.859 78.38,28.353 C78.38,29.268 77.946,29.991 77.417,30.472 C74.237,33.266 70.624,35 65.181,35 C55.354,35 48.032,27.341 48.032,17.659" id="Fill-29" fill="#B4B5B4" mask="url(#mask-4)"></path>
                <path d="M110.707,17.659 L110.707,17.562 C110.707,11.011 105.938,5.567 99.242,5.567 C92.547,5.567 87.874,10.915 87.874,17.465 L87.874,17.562 C87.874,24.114 92.643,29.509 99.339,29.509 C106.034,29.509 110.707,24.209 110.707,17.659 Z M81.659,17.659 L81.659,17.562 C81.659,8.073 88.981,0.124 99.339,0.124 C109.695,0.124 116.922,7.976 116.922,17.465 L116.922,17.562 C116.922,27.052 109.6,35 99.242,35 C88.886,35 81.659,27.148 81.659,17.659 L81.659,17.659 Z" id="Fill-30" fill="#B4B5B4" mask="url(#mask-4)"></path>
                <path d="M122.611,20.116 L122.611,3.4 C122.611,1.762 123.912,0.461 125.598,0.461 C127.235,0.461 128.536,1.762 128.536,3.4 L128.536,19.875 C128.536,26.137 131.764,29.46 137.063,29.46 C142.313,29.46 145.541,26.33 145.541,20.116 L145.541,3.4 C145.541,1.762 146.842,0.461 148.527,0.461 C150.166,0.461 151.466,1.762 151.466,3.4 L151.466,19.827 C151.466,29.894 145.782,34.953 136.967,34.953 C128.199,34.953 122.611,29.894 122.611,20.116" id="Fill-31" fill="#B4B5B4" mask="url(#mask-4)"></path>
                <path d="M158.647,3.496 C158.647,1.858 159.947,0.509 161.634,0.509 L162.26,0.509 C163.705,0.509 164.524,1.232 165.343,2.244 L182.203,24.065 L182.203,3.351 C182.203,1.762 183.504,0.461 185.094,0.461 C186.731,0.461 188.032,1.762 188.032,3.351 L188.032,31.676 C188.032,33.314 186.779,34.615 185.142,34.615 L184.9,34.615 C183.504,34.615 182.637,33.892 181.817,32.833 L164.476,10.384 L164.476,31.773 C164.476,33.363 163.175,34.664 161.586,34.664 C159.947,34.664 158.647,33.363 158.647,31.773 L158.647,3.496" id="Fill-32" fill="#B4B5B4" mask="url(#mask-4)"></path>
                <path d="M194.251,17.659 L194.251,17.562 C194.251,7.976 201.429,0.124 211.642,0.124 C216.844,0.124 220.265,1.666 223.203,3.929 C223.829,4.412 224.358,5.23 224.358,6.29 C224.358,7.928 223.059,9.18 221.42,9.18 C220.602,9.18 220.023,8.891 219.638,8.602 C217.326,6.723 214.82,5.567 211.593,5.567 C205.187,5.567 200.466,10.867 200.466,17.465 L200.466,17.562 C200.466,24.162 205.139,29.509 211.593,29.509 C215.158,29.509 217.566,28.353 220.023,26.282 C220.457,25.896 221.083,25.607 221.806,25.607 C223.299,25.607 224.6,26.859 224.6,28.353 C224.6,29.268 224.166,29.991 223.637,30.472 C220.457,33.266 216.844,35 211.4,35 C201.573,35 194.251,27.341 194.251,17.659" id="Fill-33" fill="#B4B5B4" mask="url(#mask-4)"></path>
            </g>
            <path d="M308.673,148.4 C308.673,146.762 309.974,145.461 311.659,145.461 C313.297,145.461 314.598,146.762 314.598,148.4 L314.598,176.725 C314.598,178.363 313.297,179.664 311.659,179.664 C309.974,179.664 308.673,178.363 308.673,176.725 L308.673,148.4" id="Fill-35" fill="#B4B5B4"></path>
            <path d="M322.645,148.4 C322.645,146.762 323.944,145.461 325.631,145.461 C327.269,145.461 328.569,146.762 328.569,148.4 L328.569,174.027 L343.84,174.027 C345.333,174.027 346.537,175.231 346.537,176.725 C346.537,178.218 345.333,179.422 343.84,179.422 L325.631,179.422 C323.944,179.422 322.645,178.122 322.645,176.436 L322.645,148.4" id="Fill-36" fill="#B4B5B4"></path>
        </g>
    </g>
</svg>