<?xml version="1.0" standalone="no"?>
<!DOCTYPE svg PUBLIC "-//W3C//DTD SVG 20010904//EN"
 "http://www.w3.org/TR/2001/REC-SVG-20010904/DTD/svg10.dtd">
<svg version="1.0" xmlns="http://www.w3.org/2000/svg"
 width="900.000000pt" height="900.000000pt" viewBox="0 0 900.000000 900.000000"
 preserveAspectRatio="xMidYMid meet">
<metadata>
Created by potrace 1.11, written by Peter Selinger 2001-2013
</metadata>
<g transform="translate(0.000000,900.000000) scale(0.100000,-0.100000)"
fill="#000000" stroke="none">
<path d="M4367 8504 c-1 -1 -56 -5 -121 -9 -65 -4 -128 -8 -140 -10 -12 -2
-48 -6 -81 -10 -59 -6 -216 -30 -265 -40 -14 -3 -41 -8 -60 -11 -56 -9 -294
-72 -394 -103 -206 -66 -458 -167 -596 -240 -243 -129 -357 -198 -564 -345
-53 -38 -202 -156 -271 -216 -99 -85 -398 -395 -477 -494 -137 -172 -358 -494
-358 -522 0 -4 -6 -15 -14 -23 -25 -28 -183 -351 -234 -481 -79 -197 -164
-466 -186 -584 -2 -11 -9 -39 -14 -61 -6 -22 -14 -60 -17 -85 -4 -24 -8 -47
-10 -50 -2 -4 -7 -29 -11 -56 -3 -27 -8 -58 -10 -69 -2 -11 -6 -47 -10 -80 -3
-33 -7 -66 -9 -72 -19 -58 -27 -592 -13 -768 13 -152 18 -198 28 -250 5 -27
12 -72 16 -100 4 -27 8 -54 9 -60 2 -5 8 -37 15 -70 81 -401 242 -829 446
-1187 121 -211 344 -521 492 -683 78 -85 294 -297 359 -354 164 -142 478 -367
607 -435 27 -14 54 -30 60 -35 32 -26 393 -199 461 -221 22 -7 45 -16 50 -20
17 -13 306 -107 427 -139 109 -28 322 -72 418 -86 25 -4 59 -9 75 -12 198 -33
874 -39 995 -8 8 2 44 7 80 10 36 4 68 9 71 10 3 2 27 6 53 10 61 7 259 50
356 76 41 11 82 22 90 24 64 15 339 110 415 144 11 5 45 20 75 32 88 38 282
135 387 196 100 57 303 187 338 216 11 8 61 46 111 84 340 255 719 664 929
1004 275 445 425 800 536 1269 17 69 32 141 35 160 3 19 9 58 14 85 12 63 19
116 26 180 3 28 7 64 9 80 24 188 24 686 0 803 -2 13 -7 51 -10 85 -13 138
-57 370 -101 536 -27 101 -89 302 -104 336 -5 11 -30 74 -56 140 -67 172 -184
408 -277 560 -35 57 -158 247 -167 258 -5 6 -42 55 -82 107 -232 308 -542 610
-860 837 -113 80 -258 176 -288 190 -8 4 -52 28 -97 55 -46 26 -118 64 -160
84 -43 20 -100 47 -128 61 -163 79 -561 216 -720 247 -11 2 -49 11 -85 19 -36
9 -83 18 -105 21 -23 4 -52 9 -65 11 -49 10 -76 14 -120 20 -109 13 -137 17
-160 20 -60 10 -534 26 -543 19z"/>
</g>
</svg>
