<?xml version="1.0" encoding="UTF-8" standalone="no"?>
<svg width="21px" height="21px" viewBox="0 0 21 21" version="1.1" xmlns="http://www.w3.org/2000/svg" xmlns:xlink="http://www.w3.org/1999/xlink">
    <!-- Generator: Sketch 44.1 (41455) - http://www.bohemiancoding.com/sketch -->
    <title>ion-social-pinterest - Ionicons</title>
    <desc>Created with Sketch.</desc>
    <defs></defs>
    <g id="Symbols" stroke="none" stroke-width="1" fill="none" fill-rule="evenodd">
        <g id="~-Social-Share-Buttons/White" transform="translate(-56.000000, -2.000000)" fill="#FFFFFF">
            <g id="Stacked-Group" transform="translate(1.000000, 2.000000)">
                <path d="M65.5,0 C68.4062645,0 70.8828023,1.02342727 72.9296875,3.0703125 C74.9765727,5.11719773 76,7.59373547 76,10.5 C76,13.4062645 74.9765727,15.8828023 72.9296875,17.9296875 C70.8828023,19.9765727 68.4062645,21 65.5,21 C64.4374947,21 63.4375047,20.8593764 62.5,20.578125 C63.0625028,19.57812 63.4218742,18.8281275 63.578125,18.328125 L64.328125,15.421875 C64.7968773,16.2968794 65.6406189,16.734375 66.859375,16.734375 C68.5468834,16.734375 69.9140573,16.0625067 70.9609375,14.71875 C72.0078177,13.3749933 72.53125,11.6562605 72.53125,9.5625 C72.53125,7.93749187 71.9062562,6.52344352 70.65625,5.3203125 C69.4062438,4.11718148 67.8125097,3.515625 65.875,3.515625 C63.5624884,3.515625 61.7343817,4.1953057 60.390625,5.5546875 C59.0468683,6.9140693 58.375,8.42186672 58.375,10.078125 C58.375,12.1718855 59.0937428,13.515622 60.53125,14.109375 C60.8125014,14.2343756 60.9999995,14.1406266 61.09375,13.828125 C61.09375,13.7656247 61.1171873,13.6250011 61.1640625,13.40625 C61.2109377,13.1874989 61.2499998,13.0468753 61.28125,12.984375 C61.3437503,12.7968741 61.2968758,12.6093759 61.140625,12.421875 C60.6718727,11.8593722 60.4375,11.1718791 60.4375,10.359375 C60.4375,8.98436812 60.9140577,7.80469242 61.8671875,6.8203125 C62.8203173,5.83593258 64.0624923,5.34375 65.59375,5.34375 C66.9687569,5.34375 68.0468711,5.71093383 68.828125,6.4453125 C69.6093789,7.17969117 70,8.14061906 70,9.328125 C70,10.8906328 69.6875031,12.2109321 69.0625,13.2890625 C68.4374969,14.3671929 67.6406298,14.90625 66.671875,14.90625 C66.1093722,14.90625 65.6562517,14.7109395 65.3125,14.3203125 C64.9687483,13.9296855 64.8593744,13.4531278 64.984375,12.890625 C65.0468753,12.5781234 65.1640616,12.1562527 65.3359375,11.625 C65.5078134,11.0937473 65.648437,10.625002 65.7578125,10.21875 C65.867188,9.81249797 65.921875,9.46875141 65.921875,9.1875 C65.921875,8.74999781 65.7968762,8.37500156 65.546875,8.0625 C65.2968738,7.74999844 64.9531272,7.59375 64.515625,7.59375 C63.9531222,7.59375 63.4765645,7.85155992 63.0859375,8.3671875 C62.6953105,8.88281508 62.5,9.53124609 62.5,10.3125 C62.5,10.5937514 62.5312497,10.8749986 62.59375,11.15625 C62.6562503,11.4375014 62.7187497,11.6562492 62.78125,11.8125 L62.828125,12 C62.0468711,15.2500163 61.5937506,17.1562472 61.46875,17.71875 C61.2812491,18.4687538 61.2187497,19.2656208 61.28125,20.109375 C59.4062406,19.2656208 57.8906308,17.9843836 56.734375,16.265625 C55.5781192,14.5468664 55,12.6250106 55,10.5 C55,7.59373547 56.0234273,5.11719773 58.0703125,3.0703125 C60.1171977,1.02342727 62.5937355,0 65.5,0 Z" id="ion-social-pinterest---Ionicons"></path>
            </g>
        </g>
    </g>
</svg>