<?xml version="1.0" encoding="UTF-8" standalone="no"?>
<svg width="21px" height="18px" viewBox="0 0 21 18" version="1.1" xmlns="http://www.w3.org/2000/svg" xmlns:xlink="http://www.w3.org/1999/xlink">
    <!-- Generator: Sketch 44.1 (41455) - http://www.bohemiancoding.com/sketch -->
    <title>ion-social-googleplus - Ionicons</title>
    <desc>Created with Sketch.</desc>
    <defs></defs>
    <g id="Symbols" stroke="none" stroke-width="1" fill="none" fill-rule="evenodd">
        <g id="~-Social-Share-Buttons/White" transform="translate(-176.000000, -4.000000)" fill="#FFFFFF">
            <g id="Stacked-Group" transform="translate(1.000000, 2.000000)">
                <path d="M184.84375,11.9375 C185.312502,12.3125019 185.664061,12.6093739 185.898438,12.828125 C186.132814,13.0468761 186.367186,13.3906227 186.601562,13.859375 C186.835939,14.3281273 186.953125,14.8281223 186.953125,15.359375 C186.953125,16.6093812 186.375006,17.6953079 185.21875,18.6171875 C184.062494,19.5390671 182.46876,20 180.4375,20 C178.687491,20 177.343755,19.6406286 176.40625,18.921875 C175.468745,18.2031214 175,17.3593798 175,16.390625 C175,15.1406188 175.656243,14.1250039 176.96875,13.34375 C177.937505,12.749997 179.265617,12.3906256 180.953125,12.265625 C180.703124,11.8281228 180.578125,11.4218769 180.578125,11.046875 C180.578125,10.8281239 180.59375,10.6718755 180.625,10.578125 L180.4375,10.578125 C179.124993,10.578125 178.078129,10.1718791 177.296875,9.359375 C176.546871,8.60937125 176.171875,7.71875516 176.171875,6.6875 C176.171875,5.37499344 176.718745,4.26562953 177.8125,3.359375 C178.968756,2.45312047 180.437491,2 182.21875,2 L188.5,2 L185.6875,3.546875 L185.078125,3.546875 C185.796879,4.39062922 186.15625,5.29687016 186.15625,6.265625 C186.15625,6.85937797 186.031251,7.39843508 185.78125,7.8828125 C185.531249,8.36718992 185.289064,8.71874891 185.054688,8.9375 C184.820311,9.15625109 184.484377,9.42187344 184.046875,9.734375 L184.046875,9.78125 C183.703123,10.1250017 183.53125,10.3906241 183.53125,10.578125 C183.53125,10.7968761 183.687498,11.0312487 184,11.28125 L184.84375,11.9375 Z M178.984375,5.5625 C178.984375,6.37500406 179.203123,7.17187109 179.640625,7.953125 C180.140627,8.79687922 180.781246,9.21875 181.5625,9.21875 C182.093753,9.21875 182.531248,9.04687672 182.875,8.703125 C183.187502,8.39062344 183.34375,7.92187812 183.34375,7.296875 C183.34375,6.48437094 183.109377,5.65625422 182.640625,4.8125 C182.109372,3.93749563 181.484379,3.5 180.765625,3.5 C180.171872,3.5 179.718752,3.70312297 179.40625,4.109375 C179.124999,4.45312672 178.984375,4.93749688 178.984375,5.5625 Z M184.65625,16.25 C184.65625,15.8124978 184.500002,15.4218767 184.1875,15.078125 C183.874998,14.7343733 183.250005,14.2500031 182.3125,13.625 C182.28125,13.625 182.226563,13.6171876 182.148438,13.6015625 C182.070312,13.5859374 182,13.578125 181.9375,13.578125 C181.156246,13.578125 180.375004,13.7031237 179.59375,13.953125 C178.406244,14.3906272 177.8125,15.0468706 177.8125,15.921875 C177.8125,16.6406286 178.156247,17.2187478 178.84375,17.65625 C179.531253,18.0937522 180.437494,18.3125 181.5625,18.3125 C182.531255,18.3125 183.28906,18.1250019 183.835938,17.75 C184.382815,17.3749981 184.65625,16.8750031 184.65625,16.25 Z M192.34375,5.65625 L196,5.65625 L196,7.25 L192.34375,7.25 L192.34375,11.046875 L190.75,11.046875 L190.75,7.25 L187,7.25 L187,5.65625 L190.75,5.65625 L190.75,2 L192.34375,2 L192.34375,5.65625 Z" id="ion-social-googleplus---Ionicons"></path>
            </g>
        </g>
    </g>
</svg>