<?xml version="1.0" encoding="UTF-8" standalone="no"?>
<svg width="18px" height="18px" viewBox="0 0 18 18" version="1.1" xmlns="http://www.w3.org/2000/svg" xmlns:xlink="http://www.w3.org/1999/xlink">
    <!-- Generator: Sketch 44.1 (41455) - http://www.bohemiancoding.com/sketch -->
    <title>ion-social-linkedin - Ionicons</title>
    <desc>Created with Sketch.</desc>
    <defs></defs>
    <g id="Symbols" stroke="none" stroke-width="1" fill="none" fill-rule="evenodd">
        <g id="~-Social-Share-Buttons/White" transform="translate(-89.000000, -4.000000)" fill="#FFFFFF">
            <g id="Stacked-Group" transform="translate(1.000000, 2.000000)">
                <path d="M104.546875,2 C104.953127,2 105.296874,2.13281117 105.578125,2.3984375 C105.859376,2.66406383 106,2.99999797 106,3.40625 L106,18.453125 C106,18.859377 105.859376,19.2187484 105.578125,19.53125 C105.296874,19.8437516 104.953127,20 104.546875,20 L89.546875,20 C89.140623,20 88.7812516,19.8437516 88.46875,19.53125 C88.1562484,19.2187484 88,18.859377 88,18.453125 L88,3.40625 C88,2.99999797 88.148436,2.66406383 88.4453125,2.3984375 C88.742189,2.13281117 89.1093728,2 89.546875,2 L104.546875,2 Z M93.578125,17 L93.578125,8.984375 L91,8.984375 L91,17 L93.578125,17 Z M92.359375,7.765625 C92.765627,7.765625 93.1015612,7.63281383 93.3671875,7.3671875 C93.6328138,7.10156117 93.765625,6.78125187 93.765625,6.40625 C93.765625,5.99999797 93.6406262,5.66406383 93.390625,5.3984375 C93.1406238,5.13281117 92.812502,5 92.40625,5 C91.999998,5 91.6640638,5.13281117 91.3984375,5.3984375 C91.1328112,5.66406383 91,5.99999797 91,6.40625 C91,6.78125187 91.1249988,7.10156117 91.375,7.3671875 C91.6250012,7.63281383 91.953123,7.765625 92.359375,7.765625 Z M103,17 L103,12.3125 C103,11.1562442 102.726565,10.281253 102.179688,9.6875 C101.63281,9.09374703 100.921879,8.796875 100.046875,8.796875 C99.1093703,8.796875 98.3281281,9.23437063 97.703125,10.109375 L97.703125,8.984375 L95.125,8.984375 L95.125,17 L97.703125,17 L97.703125,12.453125 C97.703125,12.1406234 97.7343747,11.9218756 97.796875,11.796875 C98.0468762,11.1718719 98.4843719,10.859375 99.109375,10.859375 C99.9843794,10.859375 100.421875,11.4374942 100.421875,12.59375 L100.421875,17 L103,17 Z" id="ion-social-linkedin---Ionicons"></path>
            </g>
        </g>
    </g>
</svg>