<?xml version="1.0" encoding="UTF-8" standalone="no"?>
<svg width="21px" height="18px" viewBox="0 0 21 18" version="1.1" xmlns="http://www.w3.org/2000/svg" xmlns:xlink="http://www.w3.org/1999/xlink">
    <!-- Generator: Sketch 44.1 (41455) - http://www.bohemiancoding.com/sketch -->
    <title>ion-social-reddit - Ionicons</title>
    <desc>Created with Sketch.</desc>
    <defs></defs>
    <g id="Symbols" stroke="none" stroke-width="1" fill="none" fill-rule="evenodd">
        <g id="~-Social-Share-Buttons/White" transform="translate(-143.000000, -4.000000)" fill="#FFFFFF">
            <g id="Stacked-Group" transform="translate(1.000000, 2.000000)">
                <path d="M163,10.765625 C163,11.7343798 162.579069,12.4374978 161.737194,12.875 C161.768374,13.0312508 161.783964,13.2499986 161.783964,13.53125 C161.783964,15.3125089 160.871947,16.8359312 159.047884,18.1015625 C157.223822,19.3671938 155.03342,20 152.476615,20 C149.919809,20 147.737203,19.3750062 145.928731,18.125 C144.120258,16.8749938 143.216036,15.3593839 143.216036,13.578125 C143.216036,13.2656234 143.231626,13.0312508 143.262806,12.875 C142.420931,12.4374978 142,11.7343798 142,10.765625 C142,10.1093717 142.233851,9.55468977 142.701559,9.1015625 C143.169267,8.64843523 143.714919,8.421875 144.33853,8.421875 C144.89978,8.421875 145.414252,8.62499797 145.88196,9.03125 C147.596891,7.84374406 149.608006,7.20312547 151.915367,7.109375 L152.008909,7.109375 L153.458797,2.28125 L157.668151,3.125 C158.104679,2.37499625 158.712691,2 159.492205,2 L159.538976,2 C160.131406,2 160.622492,2.20312297 161.012249,2.609375 C161.402006,3.01562703 161.596882,3.51562203 161.596882,4.109375 C161.596882,4.70312797 161.402006,5.20312297 161.012249,5.609375 C160.622492,6.01562703 160.131406,6.21875 159.538976,6.21875 L159.492205,6.21875 C158.962135,6.21875 158.494434,6.0390643 158.089087,5.6796875 C157.68374,5.3203107 157.465479,4.87500266 157.434298,4.34375 L154.300668,3.6875 L153.271715,7.15625 C155.641437,7.31250078 157.590193,7.93749453 159.11804,9.03125 C159.585748,8.62499797 160.11581,8.421875 160.708241,8.421875 C161.331852,8.421875 161.869708,8.64843523 162.321826,9.1015625 C162.773944,9.55468977 163,10.1093717 163,10.765625 Z M143.5902,11.703125 C143.839645,10.9843714 144.291756,10.3437528 144.946548,9.78125 C144.728284,9.62499922 144.494433,9.546875 144.244989,9.546875 C143.933183,9.546875 143.660358,9.66406133 143.426503,9.8984375 C143.192649,10.1328137 143.075724,10.4062484 143.075724,10.71875 C143.075724,11.1875023 143.247214,11.5156241 143.5902,11.703125 Z M158.743875,4.109375 C158.743875,4.32812609 158.81403,4.51562422 158.954343,4.671875 C159.094655,4.82812578 159.273941,4.90625 159.492205,4.90625 C159.710469,4.90625 159.897549,4.82812578 160.053452,4.671875 C160.209355,4.51562422 160.287305,4.32812609 160.287305,4.109375 C160.287305,3.89062391 160.209355,3.70312578 160.053452,3.546875 C159.897549,3.39062422 159.710469,3.3125 159.492205,3.3125 C159.273941,3.3125 159.094655,3.39062422 158.954343,3.546875 C158.81403,3.70312578 158.743875,3.89062391 158.743875,4.109375 Z M147.939866,12.5 C147.939866,12.9375022 148.087972,13.2968736 148.384187,13.578125 C148.680402,13.8593764 149.031178,14 149.436526,14 C149.841873,14 150.192649,13.8593764 150.488864,13.578125 C150.785079,13.2968736 150.933185,12.9375022 150.933185,12.5 C150.933185,12.093748 150.792874,11.7500014 150.512249,11.46875 C150.231624,11.1874986 149.873053,11.046875 149.436526,11.046875 C148.999998,11.046875 148.641427,11.1874986 148.360802,11.46875 C148.080177,11.7500014 147.939866,12.093748 147.939866,12.5 Z M152.476615,17.75 C153.973281,17.75 155.189305,17.2812547 156.124722,16.34375 L155.516704,15.78125 C154.73719,16.5312537 153.723837,16.90625 152.476615,16.90625 C151.915365,16.90625 151.385303,16.8125009 150.886414,16.625 C150.387525,16.4374991 150.028954,16.2500009 149.81069,16.0625 L149.483296,15.78125 L148.875278,16.34375 C149.810695,17.2812547 151.011129,17.75 152.476615,17.75 Z M155.610245,14 C156.015592,14 156.366368,13.8593764 156.662584,13.578125 C156.958799,13.2968736 157.106904,12.9375022 157.106904,12.5 C157.106904,12.093748 156.966594,11.7500014 156.685969,11.46875 C156.405344,11.1874986 156.046773,11.046875 155.610245,11.046875 C155.173717,11.046875 154.815146,11.1874986 154.534521,11.46875 C154.253896,11.7500014 154.113586,12.093748 154.113586,12.5 C154.113586,12.9375022 154.261691,13.2968736 154.557906,13.578125 C154.854122,13.8593764 155.204898,14 155.610245,14 Z M161.4098,11.75 C161.752786,11.4999987 161.924276,11.1562522 161.924276,10.71875 C161.924276,10.4062484 161.815146,10.1328137 161.596882,9.8984375 C161.378618,9.66406133 161.097997,9.546875 160.755011,9.546875 C160.505567,9.546875 160.271716,9.62499922 160.053452,9.78125 C160.708244,10.3437528 161.160355,10.9999962 161.4098,11.75 Z" id="ion-social-reddit---Ionicons"></path>
            </g>
        </g>
    </g>
</svg>