<?xml version="1.0" encoding="UTF-8" standalone="no"?>
<svg width="22px" height="18px" viewBox="0 0 22 18" version="1.1" xmlns="http://www.w3.org/2000/svg" xmlns:xlink="http://www.w3.org/1999/xlink">
    <!-- Generator: Sketch 44.1 (41455) - http://www.bohemiancoding.com/sketch -->
    <title>ion-social-twitter - Ionicons</title>
    <desc>Created with Sketch.</desc>
    <defs></defs>
    <g id="Symbols" stroke="none" stroke-width="1" fill="none" fill-rule="evenodd">
        <g id="~-Social-Share-Buttons/White" transform="translate(-22.000000, -4.000000)" fill="#FFFFFF">
            <g id="Stacked-Group" transform="translate(1.000000, 2.000000)">
                <path d="M43,4.15625 C42.4406752,5.03125437 41.6949199,5.81249656 40.7627119,6.5 L40.7627119,7.0625 C40.7627119,10.3437664 39.589701,13.3202991 37.2436441,15.9921875 C34.8975871,18.6640759 31.7825053,20 27.8983051,20 C25.4124169,20 23.1130049,19.3125069 21,17.9375 C21.4971776,18.0000003 21.8545187,18.03125 22.0720339,18.03125 C24.1539652,18.03125 26.0183533,17.3750066 27.6652542,16.0625 C26.7019726,16.0312498 25.8319248,15.7265654 25.0550847,15.1484375 C24.2782447,14.5703096 23.7500014,13.8281295 23.470339,12.921875 C23.8432222,12.9843753 24.1228804,13.015625 24.309322,13.015625 C24.6200581,13.015625 25.0240088,12.9531256 25.5211864,12.828125 C24.4957576,12.6093739 23.6334781,12.0859416 22.934322,11.2578125 C22.235166,10.4296834 21.8855932,9.46875547 21.8855932,8.375 C22.5692125,8.70312687 23.2528214,8.890625 23.9364407,8.890625 C22.6002758,8.01562063 21.9322034,6.75000828 21.9322034,5.09375 C21.9322034,4.31249609 22.1341788,3.56250359 22.5381356,2.84375 C24.9308029,5.81251484 28.0225799,7.39062406 31.8135593,7.578125 C31.7514121,7.35937391 31.720339,7.01562734 31.720339,6.546875 C31.720339,5.26561859 32.1553629,4.18750437 33.0254237,3.3125 C33.8954846,2.43749563 34.9675078,2 36.2415254,2 C37.5155431,2 38.6031028,2.48437016 39.5042373,3.453125 C40.4364453,3.29687422 41.3997125,2.92187797 42.3940678,2.328125 C42.0833318,3.42188047 41.4152594,4.26562203 40.3898305,4.859375 C41.3531122,4.76562453 42.22316,4.53125188 43,4.15625 Z" id="ion-social-twitter---Ionicons"></path>
            </g>
        </g>
    </g>
</svg>