<?xml version="1.0" encoding="UTF-8" standalone="no"?>
<svg width="26px" height="26px" viewBox="0 0 26 26" version="1.1" xmlns="http://www.w3.org/2000/svg" xmlns:xlink="http://www.w3.org/1999/xlink">
    <!-- Generator: Sketch 44.1 (41455) - http://www.bohemiancoding.com/sketch -->
    <title>ion-android-search - Ionicons</title>
    <desc>Created with Sketch.</desc>
    <defs>
        <filter x="-2.2%" y="-12.5%" width="104.4%" height="135.0%" filterUnits="objectBoundingBox" id="filter-1">
            <feOffset dx="0" dy="2" in="SourceAlpha" result="shadowOffsetOuter1"></feOffset>
            <feGaussianBlur stdDeviation="2" in="shadowOffsetOuter1" result="shadowBlurOuter1"></feGaussianBlur>
            <feColorMatrix values="0 0 0 0 0   0 0 0 0 0   0 0 0 0 0  0 0 0 0.2 0" type="matrix" in="shadowBlurOuter1" result="shadowMatrixOuter1"></feColorMatrix>
            <feMerge>
                <feMergeNode in="shadowMatrixOuter1"></feMergeNode>
                <feMergeNode in="SourceGraphic"></feMergeNode>
            </feMerge>
        </filter>
    </defs>
    <g id="Symbols" stroke="none" stroke-width="1" fill="none" fill-rule="evenodd">
        <g id="Top-Bar/Small" transform="translate(-135.000000, -9.000000)" fill="#FFFFFF">
            <g id="Top-Bar" filter="url(#filter-1)">
                <path d="M151.84375,22.296875 L157,27.453125 L155.453125,29 L150.34375,23.84375 L150.34375,23.046875 L150.015625,22.765625 C148.765619,23.8281303 147.312508,24.359375 145.65625,24.359375 C143.812491,24.359375 142.242194,23.710944 140.945312,22.4140625 C139.648431,21.117181 139,19.5468842 139,17.703125 C139,15.8593658 139.648431,14.2812566 140.945312,12.96875 C142.242194,11.6562434 143.796866,11 145.609375,11 C147.453134,11 149.023431,11.6562434 150.320312,12.96875 C151.617194,14.2812566 152.265625,15.8593658 152.265625,17.703125 C152.265625,19.3593833 151.73438,20.8124938 150.671875,22.0625 L151,22.296875 L151.84375,22.296875 Z M145.65625,22.296875 C146.937506,22.296875 148.031245,21.851567 148.9375,20.9609375 C149.843755,20.070308 150.296875,18.9843814 150.296875,17.703125 C150.296875,16.4218686 149.843755,15.3281295 148.9375,14.421875 C148.031245,13.5156205 146.937506,13.0625 145.65625,13.0625 C144.374994,13.0625 143.289067,13.5156205 142.398438,14.421875 C141.507808,15.3281295 141.0625,16.4218686 141.0625,17.703125 C141.0625,18.9843814 141.507808,20.070308 142.398438,20.9609375 C143.289067,21.851567 144.374994,22.296875 145.65625,22.296875 Z" id="ion-android-search---Ionicons"></path>
            </g>
        </g>
    </g>
</svg>