<?xml version="1.0" encoding="UTF-8" standalone="no"?>
<svg width="9px" height="18px" viewBox="0 0 9 18" version="1.1" xmlns="http://www.w3.org/2000/svg" xmlns:xlink="http://www.w3.org/1999/xlink">
    <!-- Generator: Sketch 44.1 (41455) - http://www.bohemiancoding.com/sketch -->
    <title>ion-social-facebook - Ionicons</title>
    <desc>Created with Sketch.</desc>
    <defs></defs>
    <g id="Symbols" stroke="none" stroke-width="1" fill="none" fill-rule="evenodd">
        <g id="Social-Share-Buttons/White" transform="translate(-1.000000, -4.000000)" fill="#FFFFFF">
            <g id="Stacked-Group" transform="translate(1.000000, 2.000000)">
                <path d="M6,8 L9,8 L8.625,11 L6,11 L6,20 L2.109375,20 L2.109375,11 L0,11 L0,8 L2.109375,8 L2.109375,5.984375 C2.109375,4.67186844 2.43749672,3.67969086 3.09375,3.0078125 C3.75000328,2.33593414 4.84374234,2 6.375,2 L9,2 L9,5 L7.40625,5 C6.81249703,5 6.42968836,5.09374906 6.2578125,5.28125 C6.08593664,5.46875094 6,5.78124781 6,6.21875 L6,8 Z" id="ion-social-facebook---Ionicons"></path>
            </g>
        </g>
    </g>
</svg>