<?xml version="1.0" encoding="UTF-8" standalone="no"?>
<svg width="12px" height="20px" viewBox="0 0 12 20" version="1.1" xmlns="http://www.w3.org/2000/svg" xmlns:xlink="http://www.w3.org/1999/xlink">
    <!-- Generator: Sketch 44.1 (41455) - http://www.bohemiancoding.com/sketch -->
    <title>ion-social-tumblr - Ionicons</title>
    <desc>Created with Sketch.</desc>
    <defs></defs>
    <g id="Symbols" stroke="none" stroke-width="1" fill="none" fill-rule="evenodd">
        <g id="~-Social-Share-Buttons/White" transform="translate(-119.000000, -2.000000)" fill="#FFFFFF">
            <g id="Stacked-Group" transform="translate(1.000000, 2.000000)">
                <path d="M127.046875,16.7307692 C128.07813,16.7307692 129.062495,16.4102596 130,15.7692308 L130,18.8942308 C128.937495,19.3750024 128.187502,19.6634611 127.75,19.7596154 C127.031246,19.9198726 126.328128,20 125.640625,20 C124.73437,20 123.953128,19.8878216 123.296875,19.6634615 C122.546871,19.3749986 121.953127,19.0384635 121.515625,18.6538462 C121.046873,18.205126 120.718751,17.7564125 120.53125,17.3076923 C120.343749,16.8269207 120.25,16.1217995 120.25,15.1923077 L120.25,8.46153846 L118,8.46153846 L118,5.67307692 C118.656253,5.44871683 119.312497,5.06410529 119.96875,4.51923077 C120.437502,4.13461346 120.843748,3.57372163 121.1875,2.83653846 C121.437501,2.32371538 121.656249,1.37821202 121.84375,0 L124.75,0 L124.75,5.38461538 L129.25,5.38461538 L129.25,8.46153846 L124.75,8.46153846 L124.75,13.3173077 C124.75,14.5352625 124.812499,15.2884601 124.9375,15.5769231 C125.03125,15.8974375 125.249998,16.1538452 125.59375,16.3461538 C125.968752,16.6025654 126.453122,16.7307692 127.046875,16.7307692 Z" id="ion-social-tumblr---Ionicons"></path>
            </g>
        </g>
    </g>
</svg>