<?xml version="1.0" encoding="UTF-8" standalone="no"?>
<svg width="29px" height="24px" viewBox="0 0 29 24" version="1.1" xmlns="http://www.w3.org/2000/svg" xmlns:xlink="http://www.w3.org/1999/xlink">
    <!-- Generator: Sketch 44.1 (41455) - http://www.bohemiancoding.com/sketch -->
    <title>ion-android-mail - Ionicons</title>
    <desc>Created with Sketch.</desc>
    <defs>
        <filter x="-2.2%" y="-12.5%" width="104.4%" height="135.0%" filterUnits="objectBoundingBox" id="filter-1">
            <feOffset dx="0" dy="2" in="SourceAlpha" result="shadowOffsetOuter1"></feOffset>
            <feGaussianBlur stdDeviation="2" in="shadowOffsetOuter1" result="shadowBlurOuter1"></feGaussianBlur>
            <feColorMatrix values="0 0 0 0 0   0 0 0 0 0   0 0 0 0 0  0 0 0 0.2 0" type="matrix" in="shadowBlurOuter1" result="shadowMatrixOuter1"></feColorMatrix>
            <feMerge>
                <feMergeNode in="shadowMatrixOuter1"></feMergeNode>
                <feMergeNode in="SourceGraphic"></feMergeNode>
            </feMerge>
        </filter>
    </defs>
    <g id="Symbols" stroke="none" stroke-width="1" fill="none" fill-rule="evenodd">
        <g id="Top-Bar/Small" transform="translate(-212.000000, -10.000000)" fill="#FFFFFF">
            <g id="Top-Bar" filter="url(#filter-1)">
                <g id="Stacked-Group" transform="translate(184.000000, 10.000000)">
                    <path d="M50.984375,2 C51.5156277,2 51.984373,2.19696773 52.390625,2.59090909 C52.796877,2.98485045 53,3.43939136 53,3.95454545 L53,16.0454545 C53,16.5606086 52.796877,17.0151495 52.390625,17.4090909 C51.984373,17.8030323 51.5156277,18 50.984375,18 L34.015625,18 C33.4843723,18 33.015627,17.8030323 32.609375,17.4090909 C32.203123,17.0151495 32,16.5606086 32,16.0454545 L32,3.95454545 C32,3.43939136 32.203123,2.98485045 32.609375,2.59090909 C33.015627,2.19696773 33.4843723,2 34.015625,2 L50.984375,2 Z M50.75,6.13636364 L50.75,4.18181818 L42.5,9.5 L34.25,4.18181818 L34.25,6.13636364 L42.5,11.4545455 L50.75,6.13636364 Z" id="ion-android-mail---Ionicons"></path>
                </g>
            </g>
        </g>
    </g>
</svg>