<?xml version="1.0" encoding="UTF-8" standalone="no"?>
<svg width="26px" height="28px" viewBox="0 0 26 28" version="1.1" xmlns="http://www.w3.org/2000/svg" xmlns:xlink="http://www.w3.org/1999/xlink">
    <!-- Generator: Sketch 44.1 (41455) - http://www.bohemiancoding.com/sketch -->
    <title>ion-android-share-alt - Ionicons</title>
    <desc>Created with Sketch.</desc>
    <defs>
        <filter x="-2.2%" y="-12.5%" width="104.4%" height="135.0%" filterUnits="objectBoundingBox" id="filter-1">
            <feOffset dx="0" dy="2" in="SourceAlpha" result="shadowOffsetOuter1"></feOffset>
            <feGaussianBlur stdDeviation="2" in="shadowOffsetOuter1" result="shadowBlurOuter1"></feGaussianBlur>
            <feColorMatrix values="0 0 0 0 0   0 0 0 0 0   0 0 0 0 0  0 0 0 0.2 0" type="matrix" in="shadowBlurOuter1" result="shadowMatrixOuter1"></feColorMatrix>
            <feMerge>
                <feMergeNode in="shadowMatrixOuter1"></feMergeNode>
                <feMergeNode in="SourceGraphic"></feMergeNode>
            </feMerge>
        </filter>
    </defs>
    <g id="Symbols" stroke="none" stroke-width="1" fill="none" fill-rule="evenodd">
        <g id="Top-Bar/Small" transform="translate(-278.000000, -8.000000)" fill="#FFFFFF">
            <g id="Top-Bar" filter="url(#filter-1)">
                <g id="Stacked-Group" transform="translate(184.000000, 10.000000)">
                    <path d="M113,14.1509434 C113.812504,14.1509434 114.499997,14.4339594 115.0625,15 C115.625003,15.5660406 115.90625,16.2578575 115.90625,17.0754717 C115.90625,17.8930858 115.625003,18.5849028 115.0625,19.1509434 C114.499997,19.716984 113.812504,20 113,20 C112.187496,20 111.500003,19.716984 110.9375,19.1509434 C110.374997,18.5849028 110.09375,17.8930858 110.09375,17.0754717 C110.09375,16.8867915 110.125,16.6666679 110.1875,16.4150943 L103.0625,12.2641509 C102.468747,12.7987448 101.781254,13.0660377 101,13.0660377 C100.187496,13.0660377 99.484378,12.7672986 98.890625,12.1698113 C98.296872,11.5723241 98,10.864784 98,10.0471698 C98,9.22955566 98.2890596,8.52201557 98.8671875,7.9245283 C99.4453154,7.32704104 100.140621,7.02830189 100.953125,7.02830189 C101.734379,7.02830189 102.421872,7.29559481 103.015625,7.83018868 L110.09375,3.72641509 C110.03125,3.41194811 110,3.17610142 110,3.01886792 C110,2.20125377 110.296872,1.49371368 110.890625,0.896226415 C111.484378,0.298739151 112.187496,0 113,0 C113.812504,0 114.515622,0.298739151 115.109375,0.896226415 C115.703128,1.49371368 116,2.20125377 116,3.01886792 C116,3.83648208 115.703128,4.54402217 115.109375,5.14150943 C114.515622,5.7389967 113.812504,6.03773585 113,6.03773585 C112.218746,6.03773585 111.531253,5.77044292 110.9375,5.23584906 L103.859375,9.33962264 C103.921875,9.65408962 103.953125,9.88993632 103.953125,10.0471698 C103.953125,10.2044033 103.921875,10.44025 103.859375,10.754717 L111.03125,14.9056604 C111.531252,14.4025132 112.187496,14.1509434 113,14.1509434 Z" id="ion-android-share-alt---Ionicons"></path>
                </g>
            </g>
        </g>
    </g>
</svg>