<?xml version="1.0" encoding="UTF-8" standalone="no"?>
<svg width="141px" height="73px" viewBox="0 0 141 73" version="1.1" xmlns="http://www.w3.org/2000/svg" xmlns:xlink="http://www.w3.org/1999/xlink">
    <!-- Generator: Sketch 44.1 (41455) - http://www.bohemiancoding.com/sketch -->
    <title>Logo Text</title>
    <desc>Created with Sketch.</desc>
    <defs>
        <polygon id="path-1" points="83.5917895 33.2718469 0.340990969 33.2718469 0.340990969 0.11352704 83.5917895 0.11352704"></polygon>
        <polygon id="path-3" points="90.9676429 14.0163773 0.282269246 14.0163773 0.282269246 0.0493421409 90.9676429 0.0493421409"></polygon>
    </defs>
    <g id="Certificate" stroke="none" stroke-width="1" fill="none" fill-rule="evenodd">
        <g id="A4" transform="translate(-60.000000, -468.000000)">
            <g id="Logo-Text" transform="translate(60.000000, 468.000000)">
                <path d="M9.50522449,9.04088017 L7.10573341,3.57192564 L4.70624233,9.04088017 L9.50522449,9.04088017 Z M0.570208175,12.8671024 L5.64255008,1.65841335 C5.91550484,1.05948801 6.40309763,0.69243062 7.08588952,0.69243062 L7.20333297,0.69243062 C7.88612486,0.69243062 8.35427873,1.05948801 8.62723349,1.65841335 L13.6995754,12.8671024 C13.7971749,13.0408028 13.8360528,13.2149044 13.8360528,13.3693493 C13.8360528,14.0071867 13.34846,14.5098347 12.7045459,14.5098347 C12.1387925,14.5098347 11.7487993,14.1808871 11.5341613,13.6786403 L10.4220933,11.1473483 L3.78896853,11.1473483 L2.63802277,13.7560633 C2.44322864,14.2390547 2.03339151,14.5098347 1.52635981,14.5098347 C0.901884664,14.5098347 0.414291877,14.026041 0.414291877,13.4078602 C0.414291877,13.2341598 0.472608623,13.0600583 0.570208175,12.8671024 L0.570208175,12.8671024 Z" id="Fill-6" fill="#E15D29"></path>
                <path d="M16.0423696,2.00661642 C16.0423696,1.34952352 16.5688403,0.808364593 17.2520371,0.808364593 L17.505553,0.808364593 C18.0907453,0.808364593 18.4224218,1.0984001 18.7540983,1.50436959 L25.5820172,10.2579863 L25.5820172,1.94844886 C25.5820172,1.31101258 26.1088928,0.789109124 26.7524019,0.789109124 C27.4157549,0.789109124 27.9422255,1.31101258 27.9422255,1.94844886 L27.9422255,13.3111817 C27.9422255,13.9682746 27.4351938,14.4901781 26.7718408,14.4901781 L26.6746462,14.4901781 C26.1088928,14.4901781 25.7573724,14.2001426 25.4261009,13.7749176 L18.4025779,4.76977631 L18.4025779,13.3500938 C18.4025779,13.9879312 17.8761073,14.5098347 17.2321932,14.5098347 C16.5688403,14.5098347 16.0423696,13.9879312 16.0423696,13.3500938 L16.0423696,2.00661642" id="Fill-7" fill="#E15D29"></path>
                <path d="M31.2022935,1.96810548 C31.2022935,1.31101258 31.7287641,0.789109124 32.411556,0.789109124 C33.074909,0.789109124 33.6017846,1.31101258 33.6017846,1.96810548 L33.6017846,13.3308383 C33.6017846,13.9879312 33.074909,14.5098347 32.411556,14.5098347 C31.7287641,14.5098347 31.2022935,13.9879312 31.2022935,13.3308383 L31.2022935,1.96810548" id="Fill-8" fill="#E15D29"></path>
                <path d="M36.8602327,2.00661642 C36.8602327,1.34952352 37.3871083,0.808364593 38.0699002,0.808364593 L38.3234161,0.808364593 C38.8502917,0.808364593 39.2014071,1.07914463 39.435484,1.44620202 L43.5711132,7.86188381 L47.7265863,1.4265454 C47.9801021,1.02097707 48.3312175,0.808364593 48.8188103,0.808364593 L49.0727311,0.808364593 C49.755523,0.808364593 50.2823986,1.34952352 50.2823986,2.00661642 L50.2823986,13.3308383 C50.2823986,13.9879312 49.755523,14.5098347 49.0727311,14.5098347 C48.4288171,14.5098347 47.8825026,13.9682746 47.8825026,13.3308383 L47.8825026,5.21465789 L44.5467037,10.1809644 C44.2931879,10.5672773 43.9809503,10.7995464 43.5322354,10.7995464 C43.1029593,10.7995464 42.7911267,10.5672773 42.5372059,10.1809644 L39.220846,5.25276767 L39.220846,13.3500938 C39.220846,14.0071867 38.6939704,14.5098347 38.0306174,14.5098347 C37.3672644,14.5098347 36.8602327,14.0071867 36.8602327,13.3500938 L36.8602327,2.00661642" id="Fill-9" fill="#E15D29"></path>
                <path d="M61.5602092,9.04088017 L59.1607181,3.57192564 L56.761227,9.04088017 L61.5602092,9.04088017 Z M52.6251929,12.8671024 L57.6975348,1.65841335 C57.9704895,1.05948801 58.4584873,0.69243062 59.1412792,0.69243062 L59.2583177,0.69243062 C59.9411095,0.69243062 60.4088584,1.05948801 60.6822182,1.65841335 L65.7545601,12.8671024 C65.8521596,13.0408028 65.8914424,13.2149044 65.8914424,13.3693493 C65.8914424,14.0071867 65.4034447,14.5098347 64.7595306,14.5098347 C64.1937772,14.5098347 63.803379,14.1808871 63.5891459,13.6786403 L62.477078,11.1473483 L55.8443582,11.1473483 L54.6930075,13.7560633 C54.4982133,14.2390547 54.0883762,14.5098347 53.5813445,14.5098347 C52.9568694,14.5098347 52.4692766,14.026041 52.4692766,13.4078602 C52.4692766,13.2341598 52.5279983,13.0600583 52.6251929,12.8671024 L52.6251929,12.8671024 Z" id="Fill-10" fill="#E15D29"></path>
                <path d="M68.0977593,1.96810548 C68.0977593,1.31101258 68.6242299,0.789109124 69.3070218,0.789109124 C69.9703748,0.789109124 70.4972504,1.31101258 70.4972504,1.96810548 L70.4972504,12.2485205 L76.6812552,12.2485205 C77.2858865,12.2485205 77.7734793,12.7315118 77.7734793,13.3308383 C77.7734793,13.9297637 77.2858865,14.412755 76.6812552,14.412755 L69.3070218,14.412755 C68.6242299,14.412755 68.0977593,13.8912527 68.0977593,13.2149044 L68.0977593,1.96810548" id="Fill-11" fill="#E15D29"></path>
                <path d="M0.999484216,32.2320875 C0.726124473,32.0391317 0.531330345,31.7105852 0.531330345,31.3242724 C0.531330345,30.7056904 1.03836205,30.2222979 1.66283719,30.2222979 C1.99451368,30.2222979 2.2091517,30.3193776 2.365068,30.4353115 C3.49657485,31.3242724 4.70624233,31.8269204 6.18886459,31.8269204 C7.67148684,31.8269204 8.60779458,31.1309154 8.60779458,30.1260206 L8.60779458,30.0875096 C8.60779458,29.1211257 8.06148007,28.5996234 5.52551161,28.0195524 C2.61858385,27.3239486 0.980045301,26.4738998 0.980045301,23.9807177 L0.980045301,23.9422067 C0.980045301,21.6231261 2.93082142,20.0193059 5.64255008,20.0193059 C7.35924926,20.0193059 8.74427196,20.4637864 9.97337836,21.2753242 C10.2463331,21.4301702 10.500254,21.7587167 10.500254,22.2220514 C10.500254,22.8406334 9.99281728,23.3236248 9.36874711,23.3236248 C9.13467017,23.3236248 8.93947107,23.2658583 8.74427196,23.1499244 C7.69092575,22.473576 6.67645737,22.1257741 5.60326727,22.1257741 C4.19880565,22.1257741 3.37953638,22.8406334 3.37953638,23.7295942 L3.37953638,23.7685063 C3.37953638,24.8115109 4.00360655,25.2752468 6.63757954,25.8938288 C9.52466341,26.5898338 11.0072857,27.6139841 11.0072857,29.8552405 L11.0072857,29.8941526 C11.0072857,32.4258457 8.99778781,33.9329874 6.13014286,33.9329874 C4.27696629,33.9329874 2.5209843,33.3529163 0.999484216,32.2320875" id="Fill-12" fill="#E15D29"></path>
                <path d="M13.4472745,32.5417797 L13.4472745,21.4109148 C13.4472745,20.7341652 13.9741501,20.2122618 14.656942,20.2122618 L22.5969288,20.2122618 C23.1825261,20.2122618 23.6701189,20.6956543 23.6701189,21.2753242 C23.6701189,21.8746507 23.1825261,22.3379854 22.5969288,22.3379854 L15.8471705,22.3379854 L15.8471705,25.8553179 L21.7189378,25.8553179 C22.3045351,25.8553179 22.7921279,26.3383092 22.7921279,26.9376357 C22.7921279,27.5169044 22.3045351,27.9810415 21.7189378,27.9810415 L15.8471705,27.9810415 L15.8471705,31.6139067 L22.6945284,31.6139067 C23.2797207,31.6139067 23.7673135,32.0968981 23.7673135,32.6769691 C23.7673135,33.2758945 23.2797207,33.7396304 22.6945284,33.7396304 L14.656942,33.7396304 C13.9741501,33.7396304 13.4472745,33.2177269 13.4472745,32.5417797" id="Fill-13" fill="#E15D29"></path>
                <path d="M32.0405967,26.9179791 C33.7572959,26.9179791 34.8499249,26.0290182 34.8499249,24.657066 L34.8499249,24.6185551 C34.8499249,23.1691798 33.7965787,22.3768975 32.0211578,22.3768975 L28.5290377,22.3768975 L28.5290377,26.9179791 L32.0405967,26.9179791 Z M26.1295466,21.4109148 C26.1295466,20.7341652 26.6564222,20.2122618 27.3392141,20.2122618 L32.2163569,20.2122618 C33.9330561,20.2122618 35.279201,20.7149098 36.156787,21.5649585 C36.8788617,22.2994745 37.2882939,23.3043693 37.2882939,24.4833656 L37.2882939,24.5218766 C37.2882939,26.6861111 36.0203096,28.0002969 34.186572,28.5607113 L36.8007011,31.8269204 C37.034778,32.1161536 37.1906943,32.3676781 37.1906943,32.7347355 C37.1906943,33.3918284 36.6249409,33.8363089 36.0397485,33.8363089 C35.493434,33.8363089 35.1423186,33.5847843 34.8693639,33.2177269 L31.553004,29.0244472 L28.5290377,29.0244472 L28.5290377,32.6577137 C28.5290377,33.3144054 28.0021621,33.8363089 27.3392141,33.8363089 C26.6564222,33.8363089 26.1295466,33.3144054 26.1295466,32.6577137 L26.1295466,21.4109148 L26.1295466,21.4109148 Z" id="Fill-14" fill="#E15D29"></path>
                <path d="M43.5524842,32.9666035 L38.773346,21.8357386 C38.6951853,21.6620382 38.6364636,21.4879367 38.6364636,21.2753242 C38.6364636,20.6378879 39.1633392,20.1159844 39.8461311,20.1159844 C40.4706062,20.1159844 40.8800384,20.4637864 41.0752375,20.9660332 L45.0160725,30.7249459 L49.0152243,20.8890113 C49.1711406,20.4830418 49.6004167,20.1159844 50.1661701,20.1159844 C50.8295231,20.1159844 51.3559937,20.6182313 51.3559937,21.2560687 C51.3559937,21.4301702 51.297677,21.6231261 51.2389552,21.7587167 L46.4399731,32.9666035 C46.1864572,33.5655288 45.7377423,33.9329874 45.0549504,33.9329874 L44.918068,33.9329874 C44.25512,33.9329874 43.8064051,33.5655288 43.5524842,32.9666035" id="Fill-15" fill="#E15D29"></path>
                <path d="M53.6404712,21.2949808 C53.6404712,20.6378879 54.1669418,20.1159844 54.8497337,20.1159844 C55.5130867,20.1159844 56.0395573,20.6378879 56.0395573,21.2949808 L56.0395573,32.6577137 C56.0395573,33.3144054 55.5130867,33.8363089 54.8497337,33.8363089 C54.1669418,33.8363089 53.6404712,33.3144054 53.6404712,32.6577137 L53.6404712,21.2949808" id="Fill-16" fill="#E15D29"></path>
                <path d="M58.6933742,27.0146576 L58.6933742,26.9761467 C58.6933742,23.1306689 61.6003019,19.9803938 65.7359311,19.9803938 C67.8430285,19.9803938 69.2280512,20.5989758 70.4178748,21.5071921 C70.6713907,21.7005491 70.8864337,22.0290956 70.8864337,22.4539194 C70.8864337,23.1114134 70.3595581,23.6136603 69.6962051,23.6136603 C69.3645286,23.6136603 69.1304517,23.4977263 68.9745354,23.3817923 C68.0378227,22.6280209 67.0233543,22.164285 65.7164922,22.164285 C63.121802,22.164285 61.2099037,24.2900086 61.2099037,26.9376357 L61.2099037,26.9761467 C61.2099037,29.6233726 63.1023631,31.7687528 65.7164922,31.7687528 C67.1598317,31.7687528 68.1358272,31.3050169 69.1304517,30.4738225 C69.3058069,30.3193776 69.5597277,30.2034436 69.8525264,30.2034436 C70.4571576,30.2034436 70.9840332,30.7056904 70.9840332,31.3050169 C70.9840332,31.6720743 70.808273,31.9617087 70.593635,32.1550657 C69.3058069,33.2758945 67.8430285,33.9714983 65.6387366,33.9714983 C61.6586187,33.9714983 58.6933742,30.8990474 58.6933742,27.0146576" id="Fill-17" fill="#E15D29"></path>
                <path d="M73.3069836,32.5417797 L73.3069836,21.4109148 C73.3069836,20.7341652 73.8334542,20.2122618 74.5162461,20.2122618 L82.4562329,20.2122618 C83.0414253,20.2122618 83.5290181,20.6956543 83.5290181,21.2753242 C83.5290181,21.8746507 83.0414253,22.3379854 82.4562329,22.3379854 L75.7064746,22.3379854 L75.7064746,25.8553179 L81.5786469,25.8553179 C82.1638392,25.8553179 82.651432,26.3383092 82.651432,26.9376357 C82.651432,27.5169044 82.1638392,27.9810415 81.5786469,27.9810415 L75.7064746,27.9810415 L75.7064746,31.6139067 L82.5538325,31.6139067 C83.1390248,31.6139067 83.6270226,32.0968981 83.6270226,32.6769691 C83.6270226,33.2758945 83.1390248,33.7396304 82.5538325,33.7396304 L74.5162461,33.7396304 C73.8334542,33.7396304 73.3069836,33.2177269 73.3069836,32.5417797" id="Fill-18" fill="#E15D29"></path>
                <path d="M85.6377354,32.2320875 C85.3647806,32.0391317 85.1695815,31.7105852 85.1695815,31.3242724 C85.1695815,30.7056904 85.6766132,30.2222979 86.3010883,30.2222979 C86.6323598,30.2222979 86.8474028,30.3193776 87.0033191,30.4353115 C88.134826,31.3242724 89.3444935,31.8269204 90.8271157,31.8269204 C92.309738,31.8269204 93.2460457,31.1309154 93.2460457,30.1260206 L93.2460457,30.0875096 C93.2460457,29.1211257 92.6997312,28.5996234 90.1637628,28.0195524 C87.256835,27.3239486 85.6182964,26.4738998 85.6182964,23.9807177 L85.6182964,23.9422067 C85.6182964,21.6231261 87.5690726,20.0193059 90.2808012,20.0193059 C91.9975004,20.0193059 93.3825231,20.4637864 94.6120345,21.2753242 C94.8845843,21.4301702 95.1381001,21.7587167 95.1381001,22.2220514 C95.1381001,22.8406334 94.6310684,23.3236248 94.0065933,23.3236248 C93.7725163,23.3236248 93.5777222,23.2658583 93.3825231,23.1499244 C92.3291769,22.473576 91.3147085,22.1257741 90.2419234,22.1257741 C88.8370568,22.1257741 88.0177875,22.8406334 88.0177875,23.7295942 L88.0177875,23.7685063 C88.0177875,24.8115109 88.6418577,25.2752468 91.2754257,25.8938288 C94.1629145,26.5898338 95.6455368,27.6139841 95.6455368,29.8552405 L95.6455368,29.8941526 C95.6455368,32.4258457 93.636039,33.9329874 90.768394,33.9329874 C88.9152174,33.9329874 87.1592354,33.3529163 85.6377354,32.2320875" id="Fill-19" fill="#E15D29"></path>
                <path d="M5.75918357,46.573802 C7.57348231,46.573802 8.70498915,45.5689072 8.70498915,44.158444 L8.70498915,44.1195319 C8.70498915,42.5349673 7.55404339,41.704174 5.75918357,41.704174 L2.96929428,41.704174 L2.96929428,46.573802 L5.75918357,46.573802 Z M0.569803198,40.7377901 C0.569803198,40.0614417 1.09667879,39.5395383 1.77947068,39.5395383 L5.95438267,39.5395383 C9.15370411,39.5395383 11.143763,41.3371166 11.143763,44.0617655 L11.143763,44.1002765 C11.143763,47.1342164 8.68555024,48.7187811 5.68102293,48.7187811 L2.96929428,48.7187811 L2.96929428,51.9849901 C2.96929428,52.6416819 2.44282366,53.1635853 1.77947068,53.1635853 C1.09667879,53.1635853 0.569803198,52.6416819 0.569803198,51.9849901 L0.569803198,40.7377901 L0.569803198,40.7377901 Z" id="Fill-20" fill="#FFFFFF"></path>
                <path d="M13.2127926,51.868655 L13.2127926,40.7377901 C13.2127926,40.0614417 13.7396682,39.5395383 14.42246,39.5395383 L22.3624469,39.5395383 C22.9476392,39.5395383 23.435637,40.0229308 23.435637,40.6021995 C23.435637,41.2019271 22.9476392,41.6652619 22.3624469,41.6652619 L15.6126886,41.6652619 L15.6126886,45.1821932 L21.4844559,45.1821932 C22.0696482,45.1821932 22.557646,45.6655857 22.557646,46.264511 C22.557646,46.8441809 22.0696482,47.3079168 21.4844559,47.3079168 L15.6126886,47.3079168 L15.6126886,50.9411832 L22.4600465,50.9411832 C23.0452388,50.9411832 23.5328316,51.4241746 23.5328316,52.0038444 C23.5328316,52.6031709 23.0452388,53.0669068 22.4600465,53.0669068 L14.42246,53.0669068 C13.7396682,53.0669068 13.2127926,52.5450034 13.2127926,51.868655" id="Fill-21" fill="#FFFFFF"></path>
                <path d="M25.8950647,40.6603671 C25.8950647,40.0032742 26.4219403,39.4625164 27.1047322,39.4625164 L27.3582481,39.4625164 C27.9434404,39.4625164 28.2751169,39.7521507 28.6067934,40.1581202 L35.4347123,48.9117369 L35.4347123,40.6021995 C35.4347123,39.9651644 35.9615879,39.4432609 36.605502,39.4432609 C37.2688549,39.4432609 37.7953256,39.9651644 37.7953256,40.6021995 L37.7953256,51.9653335 C37.7953256,52.6220252 37.2882939,53.1439287 36.6249409,53.1439287 L36.5273413,53.1439287 C35.9615879,53.1439287 35.6104725,52.8538932 35.278796,52.4290694 L28.255678,43.4239281 L28.255678,52.0038444 C28.255678,52.6416819 27.7292074,53.1635853 27.0852933,53.1635853 C26.4219403,53.1635853 25.8950647,52.6416819 25.8950647,52.0038444 L25.8950647,40.6603671" id="Fill-22" fill="#FFFFFF"></path>
                <path d="M46.8299663,46.2452556 C48.5466655,46.2452556 49.6388895,45.3562947 49.6388895,43.9843425 L49.6388895,43.9454304 C49.6388895,42.4964563 48.5855433,41.704174 46.8101224,41.704174 L43.3184073,41.704174 L43.3184073,46.2452556 L46.8299663,46.2452556 Z M40.9189162,40.7377901 C40.9189162,40.0614417 41.4453868,39.5395383 42.1281787,39.5395383 L47.0053215,39.5395383 C48.7224257,39.5395383 50.0681656,40.0421863 50.9461566,40.892235 C51.6678263,41.6267509 52.0776634,42.6316458 52.0776634,43.8106421 L52.0776634,43.8487519 C52.0776634,46.0133876 50.8096792,47.3275734 48.9759415,47.8879878 L51.5900706,51.1537957 C51.8241476,51.44343 51.9800639,51.6949546 51.9800639,52.062012 C51.9800639,52.7191049 51.4143104,53.1635853 50.8291181,53.1635853 C50.2828036,53.1635853 49.9316882,52.9120608 49.6587334,52.5450034 L46.3419685,48.3517237 L43.3184073,48.3517237 L43.3184073,51.9849901 C43.3184073,52.6416819 42.7915317,53.1635853 42.1281787,53.1635853 C41.4453868,53.1635853 40.9189162,52.6416819 40.9189162,51.9849901 L40.9189162,40.7377901 L40.9189162,40.7377901 Z" id="Fill-23" fill="#FFFFFF"></path>
                <path d="M55.9804306,39.4432609 C56.6441886,39.4432609 57.1706592,39.9651644 57.1706592,40.6218561 L57.1706592,51.9849901 C57.1706592,52.6416819 56.6441886,53.1635853 55.9804306,53.1635853 C55.2976387,53.1635853 54.7711681,52.6416819 54.7711681,51.9849901 L54.7711681,40.6218561 C54.7711681,39.9651644 55.2976387,39.4432609 55.9804306,39.4432609 Z" id="Fill-24" fill="#FFFFFF"></path>
                <path d="M60.4679851,41.7426849 C59.84351,41.7426849 59.3559172,41.2400369 59.3559172,40.6411116 C59.3559172,40.0421863 59.84351,39.5395383 60.4679851,39.5395383 L69.5394788,39.5395383 C70.1445151,39.5395383 70.6321079,40.0421863 70.6321079,40.6411116 C70.6321079,41.2400369 70.1445151,41.7426849 69.5394788,41.7426849 L66.20368,41.7426849 L66.20368,51.9849901 C66.20368,52.6416819 65.6569605,53.1635853 64.9940125,53.1635853 C64.3306596,53.1635853 63.784345,52.6416819 63.784345,51.9849901 L63.784345,41.7426849 L60.4679851,41.7426849 Z" id="Fill-25" fill="#FFFFFF"></path>
                <g id="Group-29" transform="translate(0.404977, 39.329734)">
                    <mask id="mask-2" fill="white">
                        <use xlink:href="#path-1"></use>
                    </mask>
                    <g id="Clip-27"></g>
                    <path d="M72.2767211,1.29212224 C72.2767211,0.635430497 72.8031917,0.11352704 73.4859836,0.11352704 C74.1493366,0.11352704 74.6762121,0.635430497 74.6762121,1.29212224 L74.6762121,5.83360498 L81.1918935,5.83360498 L81.1918935,1.29212224 C81.1918935,0.635430497 81.7187691,0.11352704 82.3821221,0.11352704 C83.064914,0.11352704 83.5917895,0.635430497 83.5917895,1.29212224 L83.5917895,12.6552563 C83.5917895,13.311948 83.064914,13.8338515 82.3821221,13.8338515 C81.7187691,13.8338515 81.1918935,13.311948 81.1918935,12.6552563 L81.1918935,8.03635048 L74.6762121,8.03635048 L74.6762121,12.6552563 C74.6762121,13.311948 74.1493366,13.8338515 73.4859836,13.8338515 C72.8031917,13.8338515 72.2767211,13.311948 72.2767211,12.6552563 L72.2767211,1.29212224" id="Fill-26" fill="#FFFFFF" mask="url(#mask-2)"></path>
                    <path d="M0.340990969,26.3390755 L0.340990969,26.3001634 C0.340990969,22.4546857 3.24751375,19.3048118 7.38354791,19.3048118 C9.49024033,19.3048118 10.875263,19.9233937 12.0654916,20.8312089 C12.3190074,21.024967 12.5336455,21.3531123 12.5336455,21.7783373 C12.5336455,22.4354302 12.0067699,22.937677 11.3438219,22.937677 C11.0121454,22.937677 10.7780685,22.8217431 10.6221522,22.7058091 C9.68543943,21.9520377 8.67097105,21.4883018 7.36410899,21.4883018 C4.76941881,21.4883018 2.85752052,23.6144266 2.85752052,26.2612513 L2.85752052,26.3001634 C2.85752052,28.9477905 4.74957492,31.0927696 7.36410899,31.0927696 C8.80744844,31.0927696 9.78303899,30.6290337 10.7780685,29.7982404 C10.9534237,29.6433943 11.2069395,29.5274604 11.4997382,29.5274604 C12.1043694,29.5274604 12.631245,30.0297072 12.631245,30.6290337 C12.631245,30.9960911 12.4554848,31.2861266 12.2408468,31.4790824 C10.9534237,32.5999112 9.49024033,33.2959162 7.28594835,33.2959162 C3.30623547,33.2959162 0.340990969,30.2230642 0.340990969,26.3390755" id="Fill-28" fill="#FFFFFF" mask="url(#mask-2)"></path>
                </g>
                <path d="M15.4960551,59.9487314 C15.4960551,59.2916385 16.0225257,58.7701362 16.7053176,58.7701362 C17.3690756,58.7701362 17.8955462,59.2916385 17.8955462,59.9487314 L17.8955462,71.3114643 C17.8955462,71.9685572 17.3690756,72.4904607 16.7053176,72.4904607 C16.0225257,72.4904607 15.4960551,71.9685572 15.4960551,71.3114643 L15.4960551,59.9487314" id="Fill-30" fill="#FFFFFF"></path>
                <path d="M24.5096371,61.0695602 L21.1928722,61.0695602 C20.568397,61.0695602 20.0808042,60.5669122 20.0808042,59.9679869 C20.0808042,59.3690616 20.568397,58.8664136 21.1928722,58.8664136 L30.2643659,58.8664136 C30.8694021,58.8664136 31.3569949,59.3690616 31.3569949,59.9679869 C31.3569949,60.5669122 30.8694021,61.0695602 30.2643659,61.0695602 L26.9285671,61.0695602 L26.9285671,71.3114643 C26.9285671,71.9685572 26.3822525,72.4904607 25.7188996,72.4904607 C25.0555466,72.4904607 24.5096371,71.9685572 24.5096371,71.3114643 L24.5096371,61.0695602" id="Fill-31" fill="#FFFFFF"></path>
                <g id="Group-39" transform="translate(31.993214, 58.585203)">
                    <mask id="mask-4" fill="white">
                        <use xlink:href="#path-3"></use>
                    </mask>
                    <g id="Clip-33"></g>
                    <path d="M5.25660662,8.5522366 L0.555224012,2.15581029 C0.399307714,1.92394234 0.282269246,1.65356345 0.282269246,1.32461585 C0.282269246,0.687179572 0.808739862,0.184932739 1.49193673,0.184932739 C2.01840735,0.184932739 2.36952275,0.474567095 2.66232141,0.899792049 L6.4662741,6.32983448 L10.3289485,0.880135424 C10.6217472,0.45491047 10.9728626,0.165276114 11.4802993,0.165276114 C12.1825301,0.165276114 12.6506839,0.687179572 12.6506839,1.32461585 C12.6506839,1.65356345 12.4947676,1.94319781 12.3190074,2.17506576 L7.65650267,8.49406904 L7.65650267,12.7262608 C7.65650267,13.3833537 7.12962708,13.9052572 6.44683519,13.9052572 C5.78348221,13.9052572 5.25660662,13.3833537 5.25660662,12.7262608 L5.25660662,8.5522366" id="Fill-32" fill="#FFFFFF" mask="url(#mask-4)"></path>
                    <path d="M19.4611888,7.08360589 L19.4611888,7.04469379 C19.4611888,3.19921605 22.3677116,0.0493421409 26.5037458,0.0493421409 C28.6104382,0.0493421409 29.9958659,0.667924102 31.1856895,1.57573926 C31.4392053,1.76949743 31.6538433,2.09764272 31.6538433,2.52286768 C31.6538433,3.17996058 31.1273727,3.68220741 30.4636148,3.68220741 C30.1323432,3.68220741 29.8982663,3.56627344 29.741945,3.45033946 C28.8056373,2.69656806 27.7911689,2.23283216 26.4839019,2.23283216 C23.8896167,2.23283216 21.9777184,4.35895694 21.9777184,7.0057817 L21.9777184,7.04469379 C21.9777184,9.69232086 23.8697728,11.8372999 26.4839019,11.8372999 C27.9276463,11.8372999 28.9032368,11.3735641 29.8982663,10.5427708 C30.0736215,10.3879247 30.3271374,10.2719907 30.619936,10.2719907 C31.2245673,10.2719907 31.7514429,10.7742376 31.7514429,11.3735641 C31.7514429,11.7406214 31.5756827,12.030657 31.3614496,12.2236128 C30.0736215,13.3444416 28.6104382,14.0404466 26.4061462,14.0404466 C22.4260284,14.0404466 19.4611888,10.9675946 19.4611888,7.08360589" id="Fill-34" fill="#FFFFFF" mask="url(#mask-4)"></path>
                    <path d="M44.8435522,7.08360589 L44.8435522,7.04469379 C44.8435522,4.41672334 42.912215,2.23283216 40.2004863,2.23283216 C37.4891626,2.23283216 35.5967033,4.3782124 35.5967033,7.0057817 L35.5967033,7.04469379 C35.5967033,9.67306539 37.5276355,11.8372999 40.2397691,11.8372999 C42.9510928,11.8372999 44.8435522,9.71157633 44.8435522,7.08360589 Z M33.0797687,7.08360589 L33.0797687,7.04469379 C33.0797687,3.23812814 36.0450132,0.0493421409 40.2397691,0.0493421409 C44.4337151,0.0493421409 47.3604867,3.19921605 47.3604867,7.0057817 L47.3604867,7.04469379 C47.3604867,10.8516606 44.3952422,14.0404466 40.2004863,14.0404466 C36.0065404,14.0404466 33.0797687,10.8901715 33.0797687,7.08360589 L33.0797687,7.08360589 Z" id="Fill-35" fill="#FFFFFF" mask="url(#mask-4)"></path>
                    <path d="M49.6639981,1.36352794 C49.6639981,0.706435042 50.1908737,0.184932739 50.8736656,0.184932739 C51.5366136,0.184932739 52.0634892,0.706435042 52.0634892,1.36352794 L52.0634892,7.97256673 C52.0634892,10.4846032 53.3707563,11.8180445 55.5163265,11.8180445 C57.6428628,11.8180445 58.9501299,10.5620262 58.9501299,8.06924524 L58.9501299,1.36352794 C58.9501299,0.706435042 59.4770055,0.184932739 60.1593924,0.184932739 C60.8231503,0.184932739 61.3496209,0.706435042 61.3496209,1.36352794 L61.3496209,7.95331126 C61.3496209,11.9917449 59.0477294,14.0211911 55.4778537,14.0211911 C51.9270118,14.0211911 49.6639981,11.9917449 49.6639981,8.06924524 L49.6639981,1.36352794 Z" id="Fill-36" fill="#FFFFFF" mask="url(#mask-4)"></path>
                    <path d="M65.4682411,0.203787053 L65.7217569,0.203787053 C66.3069493,0.203787053 66.6386257,0.493822565 66.9703022,0.899792049 L73.7982212,9.65340877 L73.7982212,1.34387132 C73.7982212,0.706435042 74.3250967,0.184932739 74.9690108,0.184932739 C75.6319588,0.184932739 76.1588344,0.706435042 76.1588344,1.34387132 L76.1588344,12.7066042 C76.1588344,13.3636971 75.6513977,13.8856005 74.9880447,13.8856005 L74.8904452,13.8856005 C74.3250967,13.8856005 73.9739813,13.595565 73.6418999,13.1707412 L66.6187819,4.16519877 L66.6187819,12.7455163 C66.6187819,13.3833537 66.0923112,13.9052572 65.4488022,13.9052572 C64.7850442,13.9052572 64.2585736,13.3833537 64.2585736,12.7455163 L64.2585736,1.40203888 C64.2585736,0.744945981 64.7850442,0.203787053 65.4682411,0.203787053 Z" id="Fill-37" fill="#FFFFFF" mask="url(#mask-4)"></path>
                    <path d="M85.7195408,0.0493421409 C87.8266382,0.0493421409 89.2120659,0.667924102 90.4018895,1.57573926 C90.6554053,1.76949743 90.8696384,2.09764272 90.8696384,2.52286768 C90.8696384,3.17996058 90.3431677,3.68220741 89.6798148,3.68220741 C89.3481383,3.68220741 89.1140613,3.56627344 88.958145,3.45033946 C88.0218373,2.69656806 87.0069639,2.23283216 85.7001019,2.23283216 C83.1054117,2.23283216 81.1939184,4.35895694 81.1939184,7.0057817 C81.1939184,9.69232086 83.0863778,11.8372999 85.7001019,11.8372999 C87.1438463,11.8372999 88.1190319,11.3735641 89.1140613,10.5427708 C89.2898215,10.3879247 89.5433374,10.2719907 89.836136,10.2719907 C90.4407673,10.2719907 90.9676429,10.7742376 90.9676429,11.3735641 C90.9676429,11.7406214 90.7918827,12.030657 90.5776497,12.2236128 C89.2898215,13.3444416 87.8266382,14.0404466 85.6219412,14.0404466 C81.6422284,14.0404466 78.6769839,10.9675946 78.6769839,7.08360589 C78.6769839,3.19921605 81.5839116,0.0493421409 85.7195408,0.0493421409 Z" id="Fill-38" fill="#FFFFFF" mask="url(#mask-4)"></path>
                </g>
                <path d="M125.420285,59.9487314 C125.420285,59.2916385 125.947161,58.7701362 126.629548,58.7701362 C127.2929,58.7701362 127.819776,59.2916385 127.819776,59.9487314 L127.819776,71.3114643 C127.819776,71.9685572 127.2929,72.4904607 126.629548,72.4904607 C125.947161,72.4904607 125.420285,71.9685572 125.420285,71.3114643 L125.420285,59.9487314" id="Fill-40" fill="#FFFFFF"></path>
                <path d="M131.077819,59.9487314 C131.077819,59.2916385 131.60429,58.7701362 132.287487,58.7701362 C132.950435,58.7701362 133.47731,59.2916385 133.47731,59.9487314 L133.47731,70.2291464 L139.66172,70.2291464 C140.266351,70.2291464 140.753944,70.7121378 140.753944,71.3114643 C140.753944,71.9103896 140.266351,72.3937821 139.66172,72.3937821 L132.287487,72.3937821 C131.60429,72.3937821 131.077819,71.8718787 131.077819,71.1955303 L131.077819,59.9487314" id="Fill-41" fill="#FFFFFF"></path>
            </g>
        </g>
    </g>
</svg>