<?xml version="1.0" encoding="UTF-8" standalone="no"?>
<svg width="100px" height="190px" viewBox="0 0 100 190" version="1.1" xmlns="http://www.w3.org/2000/svg" xmlns:xlink="http://www.w3.org/1999/xlink">
    <!-- Generator: Sketch 44.1 (41455) - http://www.bohemiancoding.com/sketch -->
    <title>Logo</title>
    <desc>Created with Sketch.</desc>
    <defs></defs>
    <g id="Home" stroke="none" stroke-width="1" fill="none" fill-rule="evenodd">
        <g id="iPhone-SE" transform="translate(-28.000000, -74.000000)">
            <g id="Logo" transform="translate(28.000000, 74.198630)">
                <path d="M22.9620543,118.960224 C15.7525698,126.049225 10.1224034,136.303931 8.0959537,149.584923 C7.79075561,151.405928 6.05473635,152.771069 4.10007384,152.771069 C1.83570089,152.771069 0,150.941478 0,148.684641 L0,49.7648805 C0,22.3610796 22.2880752,0.146776143 49.7842082,0.146776143 C77.279931,0.146776143 99.5680062,22.3610796 99.5680062,49.7648805 C99.5680062,69.5171062 87.9877076,86.5688961 71.2272457,94.5540906 L71.2272457,94.5561349 C65.7898791,97.3142181 56.4390854,100.895311 49.5458748,103.262536 C49.5458748,103.262536 35.2146912,107.489198 22.9620543,118.960224" id="Fill-1" fill="#E15D29"></path>
                <path d="M30.8241869,54.0242506 L24.3448806,54.0242506 L24.3448806,50.5641768 L29.9012088,50.5641768 C30.4562263,50.5641768 30.9177154,50.1238483 30.9177154,49.5706781 C30.9177154,49.0007451 30.4562263,48.5403832 29.9012088,48.5403832 L24.3448806,48.5403832 L24.3448806,45.1906981 L30.7310687,45.1906981 C31.285676,45.1906981 31.7475752,44.7499608 31.7475752,44.179619 C31.7475752,43.6268576 31.285676,43.1669045 30.7310687,43.1669045 L23.2180269,43.1669045 C22.5723525,43.1669045 22.071483,43.6656981 22.071483,44.3092235 L22.071483,54.9077694 C22.071483,55.5512948 22.5723525,56.0480442 23.2180269,56.0480442 L30.8241869,56.0480442 C31.3792044,56.0480442 31.8406935,55.6077158 31.8406935,55.0373739 C31.8406935,54.4842037 31.3792044,54.0242506 30.8241869,54.0242506 Z M15.1975523,43.1669045 L11.245155,43.1669045 C10.6011214,43.1669045 10.1027132,43.6656981 10.1027132,44.3092235 L10.1027132,55.0177493 C10.1027132,55.6420589 10.6011214,56.1388083 11.245155,56.1388083 C11.8731903,56.1388083 12.3720087,55.6420589 12.3720087,55.0177493 L12.3720087,51.9076486 L14.9374776,51.9076486 C17.7806604,51.9076486 20.108206,50.3981848 20.108206,47.5104971 L20.108206,47.4737008 C20.108206,44.8795654 18.2249205,43.1669045 15.1975523,43.1669045 Z M17.8003506,47.5640561 C17.8003506,48.9075279 16.729696,49.8646392 15.0133669,49.8646392 L12.3720087,49.8646392 L12.3720087,45.2274943 L15.0133669,45.2274943 C16.710416,45.2274943 17.8003506,46.0198402 17.8003506,47.5276687 L17.8003506,47.5640561 Z M44.3599685,43.0740962 C43.7508029,43.0740962 43.2523947,43.5728897 43.2523947,44.179619 L43.2523947,52.091221 L36.7903174,43.7564621 C36.4760946,43.3696927 36.1618718,43.093312 35.6093156,43.093312 L35.3689311,43.093312 C34.7228464,43.093312 34.2244383,43.609686 34.2244383,44.2335868 L34.2244383,55.0373739 C34.2244383,55.6420589 34.7228464,56.1388083 35.351292,56.1388083 C35.9604575,56.1388083 36.4588657,55.6420589 36.4588657,55.0373739 L36.4588657,46.8665627 L43.1051284,55.4413149 C43.4173002,55.8448471 43.7508029,56.1216367 44.2861302,56.1216367 L44.3792484,56.1216367 C45.0056429,56.1216367 45.4868222,55.6248873 45.4868222,54.9985334 L45.4868222,44.179619 C45.4868222,43.5728897 44.988414,43.0740962 44.3599685,43.0740962 Z M87.3801829,43.0740962 C86.7521476,43.0740962 86.2537394,43.5728897 86.2537394,44.1971994 L86.2537394,48.5232116 L80.0861946,48.5232116 L80.0861946,44.1971994 C80.0861946,43.5728897 79.5902477,43.0740962 78.961392,43.0740962 C78.3157175,43.0740962 77.8152583,43.5728897 77.8152583,44.1971994 L77.8152583,55.0177493 C77.8152583,55.6420589 78.3157175,56.1388083 78.961392,56.1388083 C79.5902477,56.1388083 80.0861946,55.6420589 80.0861946,55.0177493 L80.0861946,50.6181446 L86.2537394,50.6181446 L86.2537394,55.0177493 C86.2537394,55.6420589 86.7521476,56.1388083 87.3801829,56.1388083 C88.0262676,56.1388083 88.5246758,55.6420589 88.5246758,55.0177493 L88.5246758,44.1971994 C88.5246758,43.5728897 88.0262676,43.0740962 87.3801829,43.0740962 Z M75.1648754,43.1669045 L66.5787178,43.1669045 C65.9871914,43.1669045 65.5257023,43.6460734 65.5257023,44.2164152 C65.5257023,44.7867571 65.9871914,45.265926 66.5787178,45.265926 L69.7168433,45.265926 L69.7168433,55.0177493 C69.7168433,55.6420589 70.2345315,56.1388083 70.8613362,56.1388083 C71.4893715,56.1388083 72.0078801,55.6420589 72.0078801,55.0177493 L72.0078801,45.265926 L75.1648754,45.265926 C75.7367116,45.265926 76.1965598,44.7867571 76.1965598,44.2164152 C76.1965598,43.6460734 75.7367116,43.1669045 75.1648754,43.1669045 Z M54.3933557,43.1669045 L49.7796959,43.1669045 C49.1340214,43.1669045 48.6335622,43.6656981 48.6335622,44.3092235 L48.6335622,55.0177493 C48.6335622,55.6420589 49.1340214,56.1388083 49.7796959,56.1388083 C50.4081414,56.1388083 50.9065496,55.6420589 50.9065496,55.0177493 L50.9065496,51.5580843 L53.7669613,51.5580843 L56.9050868,55.5512948 C57.1651615,55.8992238 57.4966132,56.1388083 58.0147116,56.1388083 C58.5672678,56.1388083 59.1025951,55.7152426 59.1025951,55.0913418 C59.1025951,54.7413686 58.9553289,54.5017841 58.7342243,54.2249945 L56.2590022,51.1169382 C57.9950214,50.5813483 59.1936623,49.3310936 59.1936623,47.272548 L59.1936623,47.2337075 C59.1936623,46.1130574 58.8076524,45.153493 58.1250588,44.4559997 C57.2927376,43.6460734 56.0210789,43.1669045 54.3933557,43.1669045 Z M56.8874477,47.4001083 C56.8874477,48.7047397 55.8541224,49.5514623 54.2288605,49.5514623 L50.9065496,49.5514623 L50.9065496,45.2274943 L54.2116316,45.2274943 C55.8910416,45.2274943 56.8874477,45.983044 56.8874477,47.3633121 L56.8874477,47.4001083 Z M62.8084548,43.0740962 C62.160319,43.0740962 61.6619109,43.5728897 61.6619109,44.1971994 L61.6619109,55.0177493 C61.6619109,55.6420589 62.160319,56.1388083 62.8084548,56.1388083 C63.434439,56.1388083 63.9328472,55.6420589 63.9328472,55.0177493 L63.9328472,44.1971994 C63.9328472,43.5728897 63.434439,43.0740962 62.8084548,43.0740962 L62.8084548,43.0740962 Z" id="Fill-3" fill="#FFFFFF"></path>
                <path d="M95.8523015,151.15367 C95.8523015,172.358938 78.6040969,189.551781 57.3259648,189.551781 C36.048243,189.551781 18.7996282,172.358938 18.7996282,151.15367 C18.7996282,129.943904 36.048243,112.753515 57.3259648,112.753515 C78.6040969,112.753515 95.8523015,129.943904 95.8523015,151.15367" id="Fill-4" fill="#EA882C"></path>
                <path d="M57.7357671,149.921813 C54.9582183,149.928355 52.1367768,151.333154 50.3375849,153.423998 C48.3952287,155.861954 46.8040145,158.698945 46.1813119,161.774702 C45.4244699,163.989019 47.1395683,166.537772 49.5142884,166.552899 C52.3714184,166.632216 54.8269504,164.6767 57.6684923,164.53115 C60.0789009,164.165232 62.2370288,165.414669 64.4045916,166.231954 C66.2493171,167.019394 68.799198,166.718074 69.7410459,164.738027 C70.4822998,162.721592 69.391955,160.569829 68.4882569,158.77867 C66.6451722,155.87054 64.6712297,152.814407 61.6496045,150.999125 C60.4386572,150.250526 59.0923398,149.91936 57.7357671,149.921813 Z M42.8048529,143.036418 C41.387979,143.023743 39.9940769,143.869239 39.5317674,145.305111 C38.2962074,149.145821 40.7767624,154.009059 44.8579664,154.816123 C46.5607585,155.106813 48.0576238,153.803 48.4797325,152.234253 C49.3748161,148.879662 47.536654,144.984166 44.4256025,143.46121 C43.91899,143.177879 43.3594602,143.040506 42.8048529,143.036418 Z M71.9566035,142.30131 C68.6252679,142.50001 66.3420252,145.811672 66.0167267,148.90501 C65.5761584,151.135272 66.7690564,154.118221 69.3234495,154.296069 C72.8832735,154.252323 75.3125519,150.460674 75.4130539,147.198073 C75.6386708,145.040178 74.3633202,142.420285 71.9566035,142.30131 Z M50.4405482,132.007356 C48.515421,132.054373 47.0156841,134.000486 46.710486,135.829259 C46.0672728,139.45369 47.7216598,143.95755 51.5103824,145.103549 C51.8652162,145.180003 52.2319461,145.188589 52.5904719,145.132986 C55.1514284,144.707785 56.2360303,141.846263 56.1285546,139.536686 C56.0518448,136.489139 54.4635021,132.966102 51.2888676,132.109567 C50.9984372,132.032704 50.7153906,132.000405 50.4405482,132.007356 Z M63.5669377,131.867121 C63.4906381,131.867939 63.4126978,131.871618 63.3347574,131.877751 C60.2388837,132.410479 58.5360917,135.673897 58.2891438,138.550955 C57.9293874,141.162671 59.0833151,144.518489 61.9601353,145.103549 C62.3773214,145.182456 62.810916,145.146478 63.2190775,145.036498 C66.6825015,143.878643 68.2322843,139.789353 67.7318251,136.402872 C67.5866099,134.215539 65.9318127,131.836866 63.5669377,131.867121 L63.5669377,131.867121 Z" id="Fill-5" fill="#FFFFFF"></path>
            </g>
        </g>
    </g>
</svg>